<svg xmlns="http://www.w3.org/2000/svg" width="10.597" height="10.594" viewBox="0 0 10.597 10.594"><path d="M100.187,23.535a5.26,5.26,0,0,0-.715-1.424,5.468,5.468,0,0,0-1.126-1.164,5.29,5.29,0,0,0-7.275.833,5.426,5.426,0,0,0-.836,1.4,5.255,5.255,0,0,0-.372,1.59A5.309,5.309,0,0,0,90,26.428a5.239,5.239,0,0,0,.612,1.48,5.317,5.317,0,0,0,2.33,2.075,5.368,5.368,0,0,0,1.606.444,5.31,5.31,0,0,0,1.668-.073A5.3,5.3,0,0,0,100.376,26a5.466,5.466,0,0,0,.068-.831,5.231,5.231,0,0,0-.257-1.63Zm-2.364,1.979h-.009c-.215,0-.43,0-.645,0-.443,0-.886,0-1.33,0l-.337,0h0v.529q0,.633,0,1.266v.53a.335.335,0,0,1-.67,0V25.511l-.525,0h-1.8a.336.336,0,0,1,0-.673h.009l.645,0h1.667V22.525a.334.334,0,0,1,.668,0v2.317h2.322a.336.336,0,0,1,0,.672Z" transform="translate(-89.847 -19.868)" fill="#89e798"/></svg>