<svg xmlns="http://www.w3.org/2000/svg" width="62.599" height="63.341" viewBox="0 0 62.599 63.341">
  <path id="artdeco" d="M78.723,67.6a.268.268,0,0,1-.535-.019c.034-.948.053-1.9.073-2.848.131-6.43.267-13.07,4.764-18.457a15.536,15.536,0,0,0-3.218-.554l-.272-.017c-1.576-.1-1.7-.1-1.7-1.985v-4.2c0-.289.012-.61.038-.937s.065-.669.116-1.01a14.75,14.75,0,0,1,5.324-9.213A16.336,16.336,0,0,1,93.46,24.706V22.5a15.857,15.857,0,0,0-6.18,1.346,15.133,15.133,0,0,0-5.229,3.813.267.267,0,1,1-.4-.354,15.676,15.676,0,0,1,5.414-3.949,16.4,16.4,0,0,1,6.4-1.392V19.423c0-.248-.012-.544-.038-.87-.025-.309-.061-.633-.109-.953-.01-.07-.022-.139-.033-.208a15.978,15.978,0,0,0-6.59,3.426,21.787,21.787,0,0,0-5.384,6.755.267.267,0,1,1-.478-.239,22.344,22.344,0,0,1,5.518-6.927,16.5,16.5,0,0,1,6.836-3.541A13.494,13.494,0,0,0,91.67,12.89a16.69,16.69,0,0,0-1.962.9,17.273,17.273,0,0,0-2.219,1.41,15.511,15.511,0,0,0-4.5,5.489A34.915,34.915,0,0,0,80.545,27.5a.268.268,0,0,1-.517-.138,35.4,35.4,0,0,1,2.489-6.919,16.035,16.035,0,0,1,4.652-5.673,17.785,17.785,0,0,1,2.288-1.459,17.189,17.189,0,0,1,1.935-.889,14.435,14.435,0,0,0-3.094-3.5q-.176-.144-.356-.282c-.865.777-1.775,1.6-2.56,2.4-4.259,4.364-4.917,10.218-5.565,15.985l-.046.409a.268.268,0,1,1-.532-.059l.046-.409c.658-5.858,1.326-11.8,5.713-16.3.781-.8,1.662-1.6,2.5-2.355A15.272,15.272,0,0,0,83.54,6.3c-4.478,5.263-4.612,11.86-4.743,18.247-.02.962-.039,1.919-.073,2.856a.268.268,0,0,1-.535-.019c.034-.948.053-1.9.073-2.848.13-6.412.266-13.033,4.726-18.412a15.85,15.85,0,0,0-4.526-.654V4.611A16.35,16.35,0,0,1,88.84,8.263a14.861,14.861,0,0,1,5.05,7.846,14.86,14.86,0,0,1,5.05-7.846,16.568,16.568,0,0,1,20.755,0,14.861,14.861,0,0,1,5.05,7.846,14.86,14.86,0,0,1,5.05-7.846,16.35,16.35,0,0,1,10.377-3.652v.858a15.848,15.848,0,0,0-4.535.657c4.458,5.378,4.593,12,4.724,18.409.019.952.039,1.9.073,2.848a.268.268,0,0,1-.535.019c-.034-.937-.053-1.9-.073-2.856-.13-6.385-.264-12.981-4.74-18.244a15.273,15.273,0,0,0-3.959,2.023c.841.756,1.721,1.552,2.5,2.351,4.388,4.5,5.055,10.442,5.713,16.3l.046.409a.268.268,0,1,1-.532.059l-.046-.409c-.648-5.768-1.3-11.62-5.565-15.985-.784-.8-1.692-1.622-2.556-2.4q-.177.136-.35.278a14.425,14.425,0,0,0-3.1,3.5,17.269,17.269,0,0,1,1.926.886,17.807,17.807,0,0,1,2.288,1.459,16.035,16.035,0,0,1,4.652,5.673,35.376,35.376,0,0,1,2.489,6.919.268.268,0,0,1-.517.138,34.917,34.917,0,0,0-2.447-6.813,15.508,15.508,0,0,0-4.5-5.489,17.284,17.284,0,0,0-2.219-1.415,16.587,16.587,0,0,0-1.954-.892,13.508,13.508,0,0,0-1.512,3.974,16.509,16.509,0,0,1,6.825,3.539,22.347,22.347,0,0,1,5.518,6.927.267.267,0,1,1-.478.239,21.8,21.8,0,0,0-5.384-6.755,15.987,15.987,0,0,0-6.579-3.423c-.011.068-.022.137-.032.2-.048.32-.084.644-.109.953-.026.326-.039.623-.038.87v2.534a16.4,16.4,0,0,1,6.384,1.392,15.665,15.665,0,0,1,5.414,3.949.267.267,0,1,1-.4.354,15.13,15.13,0,0,0-5.229-3.813,15.862,15.862,0,0,0-6.168-1.346v2.222a16.314,16.314,0,0,1,9.75,3.641,14.749,14.749,0,0,1,5.324,9.213c.051.341.09.684.116,1.01s.039.648.038.937v4.967h0V44.5h0c0,.511,0,1.146-.893,1.183a15.786,15.786,0,0,0-3.871.644c4.459,5.378,4.594,12,4.725,18.409.019.952.039,1.9.073,2.848a.268.268,0,0,1-.535.019c-.034-.937-.053-1.895-.073-2.856-.13-6.386-.264-12.982-4.741-18.245a15.282,15.282,0,0,0-3.959,2.023c.841.756,1.721,1.553,2.5,2.352,4.388,4.5,5.055,10.442,5.713,16.3l.046.409a.268.268,0,1,1-.532.059l-.046-.409c-.648-5.768-1.3-11.62-5.565-15.985-.785-.8-1.693-1.623-2.556-2.4q-.307.236-.6.486a14.4,14.4,0,0,0-2.847,3.294,17.164,17.164,0,0,1,1.926.886,17.81,17.81,0,0,1,2.288,1.459,16.035,16.035,0,0,1,4.652,5.673,35.378,35.378,0,0,1,2.489,6.918.268.268,0,1,1-.517.138,34.932,34.932,0,0,0-2.447-6.814,15.508,15.508,0,0,0-4.5-5.489,17.282,17.282,0,0,0-2.219-1.415,16.7,16.7,0,0,0-1.954-.893,13.493,13.493,0,0,0-1.512,3.975,16.509,16.509,0,0,1,6.825,3.539,22.347,22.347,0,0,1,5.518,6.927.267.267,0,1,1-.478.239,21.8,21.8,0,0,0-5.384-6.755,15.987,15.987,0,0,0-6.579-3.423l-.033.2c-.048.32-.084.644-.109.953-.026.326-.039.623-.038.87v2.534a16.4,16.4,0,0,1,6.384,1.392A15.665,15.665,0,0,1,136.96,67.5a.267.267,0,0,1-.4.354,15.13,15.13,0,0,0-5.229-3.813,15.862,15.862,0,0,0-6.168-1.346v2.553H124.3V62.7a15.862,15.862,0,0,0-6.168,1.346,15.133,15.133,0,0,0-5.229,3.813.267.267,0,0,1-.4-.354,15.676,15.676,0,0,1,5.414-3.949,16.4,16.4,0,0,1,6.384-1.392V59.627c0-.248-.012-.544-.038-.87-.025-.309-.061-.633-.109-.953-.01-.069-.021-.137-.033-.205a15.985,15.985,0,0,0-6.579,3.423,21.787,21.787,0,0,0-5.384,6.755.267.267,0,0,1-.478-.239,22.343,22.343,0,0,1,5.518-6.927,16.509,16.509,0,0,1,6.825-3.539,13.478,13.478,0,0,0-1.5-3.972,16.6,16.6,0,0,0-1.953.892,17.274,17.274,0,0,0-2.219,1.415,15.511,15.511,0,0,0-4.5,5.489,34.908,34.908,0,0,0-2.447,6.814.268.268,0,1,1-.517-.138,35.394,35.394,0,0,1,2.489-6.918,16.035,16.035,0,0,1,4.652-5.673,17.816,17.816,0,0,1,2.288-1.459,17.191,17.191,0,0,1,1.926-.886,14.431,14.431,0,0,0-3.1-3.5q-.172-.142-.35-.278c-.863.776-1.771,1.6-2.556,2.4-4.259,4.364-4.917,10.218-5.565,15.985l-.046.409a.268.268,0,1,1-.532-.059l.046-.409c.658-5.858,1.326-11.8,5.713-16.3.779-.8,1.658-1.6,2.5-2.351A15.284,15.284,0,0,0,114.4,46.51c-4.476,5.263-4.61,11.858-4.74,18.244-.02.962-.039,1.919-.073,2.856a.268.268,0,0,1-.535,0c-.034-.937-.053-1.895-.073-2.856-.13-6.386-.264-12.983-4.743-18.247a15.282,15.282,0,0,0-3.961,2.021c.843.758,1.724,1.556,2.5,2.355,4.388,4.5,5.055,10.442,5.713,16.3l.046.409a.268.268,0,0,1-.532.059l-.046-.409c-.648-5.768-1.305-11.62-5.565-15.985-.786-.805-1.7-1.626-2.561-2.4q-.181.139-.356.282a14.432,14.432,0,0,0-3.094,3.5,17.143,17.143,0,0,1,1.935.889,17.808,17.808,0,0,1,2.288,1.459,16.035,16.035,0,0,1,4.652,5.673,35.375,35.375,0,0,1,2.489,6.918.268.268,0,1,1-.517.138A34.932,34.932,0,0,0,104.78,60.9a15.508,15.508,0,0,0-4.5-5.489A17.283,17.283,0,0,0,98.061,54a16.658,16.658,0,0,0-1.962-.9,13.492,13.492,0,0,0-1.5,3.971,16.5,16.5,0,0,1,6.836,3.541,22.347,22.347,0,0,1,5.518,6.927.267.267,0,1,1-.478.239,21.8,21.8,0,0,0-5.384-6.755A15.977,15.977,0,0,0,94.5,57.6c-.012.069-.022.138-.033.208-.048.32-.084.644-.109.953s-.038.6-.038.835v2.57a16.4,16.4,0,0,1,6.4,1.392,15.665,15.665,0,0,1,5.414,3.949.267.267,0,1,1-.4.354,15.13,15.13,0,0,0-5.229-3.813,15.866,15.866,0,0,0-6.18-1.346V65.16h-.858V62.7a15.857,15.857,0,0,0-6.18,1.346,15.133,15.133,0,0,0-5.229,3.813.267.267,0,0,1-.4-.354,15.676,15.676,0,0,1,5.414-3.949,16.4,16.4,0,0,1,6.4-1.392v-2.57c0-.24-.013-.525-.038-.835s-.061-.633-.109-.952c-.01-.07-.022-.139-.033-.208a15.978,15.978,0,0,0-6.59,3.426,21.787,21.787,0,0,0-5.384,6.755.267.267,0,0,1-.478-.239,22.344,22.344,0,0,1,5.518-6.927,16.5,16.5,0,0,1,6.837-3.541,13.91,13.91,0,0,0-1.478-3.989,16.583,16.583,0,0,0-2,.91A17.275,17.275,0,0,0,87.5,55.4,15.511,15.511,0,0,0,83,60.893a34.906,34.906,0,0,0-2.447,6.814.268.268,0,1,1-.517-.138,35.4,35.4,0,0,1,2.489-6.919,16.035,16.035,0,0,1,4.652-5.673,17.817,17.817,0,0,1,2.288-1.459,17.19,17.19,0,0,1,1.978-.906A14.1,14.1,0,0,0,88.8,49.439q-.379-.339-.783-.652c-.885.8-1.822,1.638-2.629,2.464-4.259,4.364-4.917,10.218-5.565,15.985l-.046.409a.268.268,0,1,1-.532-.059l.046-.409c.658-5.858,1.326-11.8,5.713-16.3.8-.822,1.71-1.641,2.573-2.417a14.661,14.661,0,0,0-3.992-2.011.246.246,0,0,1-.029.04c-4.488,5.265-4.622,11.867-4.752,18.259-.02.962-.039,1.919-.073,2.856ZM114.4,6.3c-4.476,5.263-4.61,11.858-4.74,18.244-.02.962-.039,1.919-.073,2.856a.268.268,0,1,1-.535,0c-.034-.937-.053-1.9-.073-2.856-.13-6.386-.264-12.983-4.743-18.247a15.282,15.282,0,0,0-3.961,2.021c.843.758,1.724,1.556,2.5,2.355,4.388,4.5,5.055,10.442,5.713,16.3l.046.409a.268.268,0,0,1-.532.059l-.046-.409c-.648-5.768-1.305-11.62-5.565-15.985-.786-.805-1.7-1.626-2.561-2.4q-.181.139-.356.282a14.432,14.432,0,0,0-3.094,3.5,17.141,17.141,0,0,1,1.935.889,17.807,17.807,0,0,1,2.288,1.459,16.035,16.035,0,0,1,4.652,5.673,35.374,35.374,0,0,1,2.489,6.919.268.268,0,1,1-.517.138,34.917,34.917,0,0,0-2.447-6.813,15.507,15.507,0,0,0-4.5-5.489,17.281,17.281,0,0,0-2.219-1.415,16.659,16.659,0,0,0-1.962-.9,13.489,13.489,0,0,0-1.514,3.976,16.5,16.5,0,0,1,6.836,3.541,22.347,22.347,0,0,1,5.518,6.927.267.267,0,0,1-.478.239,21.8,21.8,0,0,0-5.384-6.755,15.977,15.977,0,0,0-6.59-3.426c-.012.069-.022.138-.033.208-.048.32-.084.644-.109.953-.026.326-.039.623-.038.87v2.534a16.4,16.4,0,0,1,6.4,1.392,15.665,15.665,0,0,1,5.414,3.949.267.267,0,1,1-.4.354,15.13,15.13,0,0,0-5.229-3.813,15.866,15.866,0,0,0-6.18-1.346v2.222a16.314,16.314,0,0,1,9.75,3.641,14.861,14.861,0,0,1,5.05,7.846,14.86,14.86,0,0,1,5.05-7.846A16.336,16.336,0,0,1,124.308,24.7V22.5a15.862,15.862,0,0,0-6.168,1.346,15.133,15.133,0,0,0-5.229,3.813.267.267,0,0,1-.4-.354,15.677,15.677,0,0,1,5.414-3.949,16.4,16.4,0,0,1,6.384-1.392v-2.54c0-.248-.012-.544-.038-.87-.025-.309-.061-.633-.109-.953-.01-.069-.021-.137-.032-.2a15.985,15.985,0,0,0-6.579,3.423,21.786,21.786,0,0,0-5.384,6.755.267.267,0,1,1-.478-.239,22.343,22.343,0,0,1,5.518-6.927,16.51,16.51,0,0,1,6.825-3.539,13.478,13.478,0,0,0-1.512-3.974,16.61,16.61,0,0,0-1.954.892,17.274,17.274,0,0,0-2.219,1.415,15.511,15.511,0,0,0-4.5,5.489A34.915,34.915,0,0,0,111.4,27.5a.268.268,0,1,1-.517-.138,35.393,35.393,0,0,1,2.489-6.919,16.035,16.035,0,0,1,4.652-5.673,17.785,17.785,0,0,1,2.288-1.459,17.191,17.191,0,0,1,1.926-.886,14.43,14.43,0,0,0-3.1-3.5q-.172-.141-.35-.278c-.863.776-1.771,1.6-2.556,2.4-4.259,4.364-4.917,10.218-5.565,15.985l-.046.409a.268.268,0,0,1-.532-.059l.046-.409c.658-5.858,1.326-11.8,5.713-16.3.779-.8,1.658-1.6,2.5-2.351A15.284,15.284,0,0,0,114.4,6.3Zm-9.611-.178c3.246,3.915,4.2,8.488,4.531,13.16.329-4.671,1.284-9.244,4.528-13.158a15.98,15.98,0,0,0-9.059,0ZM98.776,26.4c-4.476,5.263-4.61,11.858-4.74,18.244-.02.962-.039,1.919-.073,2.856a.268.268,0,1,1-.535,0c-.034-.937-.053-1.9-.073-2.856-.13-6.386-.264-12.983-4.743-18.247a15.282,15.282,0,0,0-3.961,2.021c.843.758,1.724,1.556,2.5,2.355,4.388,4.5,5.055,10.442,5.713,16.3l.046.409a.268.268,0,1,1-.532.059l-.046-.409c-.648-5.768-1.305-11.62-5.565-15.985-.786-.805-1.7-1.626-2.56-2.4q-.181.139-.356.282a14.432,14.432,0,0,0-3.094,3.5,17.143,17.143,0,0,1,1.935.889,17.807,17.807,0,0,1,2.288,1.459,16.035,16.035,0,0,1,4.652,5.673,35.374,35.374,0,0,1,2.489,6.919.268.268,0,1,1-.517.138,34.932,34.932,0,0,0-2.447-6.814,15.507,15.507,0,0,0-4.5-5.489,17.282,17.282,0,0,0-2.219-1.415,16.658,16.658,0,0,0-1.962-.9,13.487,13.487,0,0,0-1.514,3.975A16.5,16.5,0,0,1,85.805,40.5a22.347,22.347,0,0,1,5.518,6.927.267.267,0,1,1-.478.239,21.8,21.8,0,0,0-5.384-6.755,15.977,15.977,0,0,0-6.59-3.426c-.012.069-.022.138-.033.208-.048.32-.084.644-.109.953-.026.326-.039.623-.038.87V42.05a16.4,16.4,0,0,1,6.4,1.392,15.671,15.671,0,0,1,5.409,3.95.267.267,0,0,1-.4.354,15.13,15.13,0,0,0-5.229-3.813,15.866,15.866,0,0,0-6.18-1.346v1.136c0,1.076.063,1.079.892,1.13l.276.017a15.723,15.723,0,0,1,9.5,3.93,14.851,14.851,0,0,1,4.53,7.5,14.861,14.861,0,0,1,5.048-7.84,16.317,16.317,0,0,1,9.75-3.641V42.588a15.862,15.862,0,0,0-6.168,1.346,15.133,15.133,0,0,0-5.229,3.813.267.267,0,1,1-.4-.354,15.676,15.676,0,0,1,5.414-3.949,16.4,16.4,0,0,1,6.384-1.392V39.517c0-.248-.012-.544-.038-.87-.025-.309-.061-.633-.109-.953-.01-.069-.021-.137-.033-.205a15.985,15.985,0,0,0-6.579,3.423,21.787,21.787,0,0,0-5.384,6.755.267.267,0,1,1-.478-.239,22.344,22.344,0,0,1,5.518-6.927,16.51,16.51,0,0,1,6.825-3.539,13.478,13.478,0,0,0-1.512-3.974,16.6,16.6,0,0,0-1.953.892,17.274,17.274,0,0,0-2.219,1.415,15.511,15.511,0,0,0-4.5,5.489A34.908,34.908,0,0,0,95.785,47.6a.268.268,0,1,1-.517-.138,35.4,35.4,0,0,1,2.489-6.919,16.035,16.035,0,0,1,4.652-5.673,17.816,17.816,0,0,1,2.288-1.459,17.191,17.191,0,0,1,1.926-.886,14.431,14.431,0,0,0-3.1-3.5q-.172-.142-.35-.278c-.863.776-1.771,1.595-2.556,2.4-4.256,4.36-4.917,10.213-5.561,15.981l-.046.409a.268.268,0,1,1-.532-.059l.046-.409c.658-5.858,1.326-11.8,5.713-16.3.779-.8,1.658-1.595,2.5-2.351A15.284,15.284,0,0,0,98.778,26.4Zm-9.611-.178c3.246,3.915,4.2,8.488,4.531,13.16.329-4.671,1.284-9.244,4.528-13.158a15.98,15.98,0,0,0-9.059,0Zm30.845,0c3.245,3.914,4.2,8.487,4.528,13.158.33-4.672,1.284-9.245,4.531-13.16a15.98,15.98,0,0,0-9.059,0Zm9.611.173c-4.478,5.263-4.612,11.86-4.743,18.247-.02.962-.039,1.919-.073,2.856a.268.268,0,0,1-.535,0c-.034-.937-.053-1.9-.073-2.856-.13-6.385-.264-12.981-4.74-18.244a15.273,15.273,0,0,0-3.959,2.023c.841.756,1.721,1.553,2.5,2.351,4.388,4.5,5.055,10.442,5.713,16.3l.046.409a.268.268,0,1,1-.532.059l-.046-.409c-.648-5.768-1.305-11.62-5.565-15.985-.784-.8-1.692-1.622-2.556-2.4q-.177.136-.35.278a14.425,14.425,0,0,0-3.1,3.5,17.269,17.269,0,0,1,1.926.886,17.808,17.808,0,0,1,2.288,1.459,16.035,16.035,0,0,1,4.652,5.673,35.374,35.374,0,0,1,2.489,6.919.268.268,0,0,1-.517.138A34.932,34.932,0,0,0,120,40.785a15.508,15.508,0,0,0-4.5-5.489,17.283,17.283,0,0,0-2.219-1.415,16.613,16.613,0,0,0-1.953-.892,13.508,13.508,0,0,0-1.512,3.974,16.509,16.509,0,0,1,6.825,3.539,22.347,22.347,0,0,1,5.518,6.927.267.267,0,0,1-.478.239,21.8,21.8,0,0,0-5.384-6.755,15.987,15.987,0,0,0-6.579-3.423c-.011.068-.022.137-.032.205-.048.32-.084.644-.109.952-.026.326-.039.623-.038.87v2.534a16.4,16.4,0,0,1,6.384,1.392,15.671,15.671,0,0,1,5.414,3.949.267.267,0,0,1-.4.354,15.13,15.13,0,0,0-5.229-3.813,15.862,15.862,0,0,0-6.168-1.346v2.227a16.334,16.334,0,0,1,10.146,3.651,14.862,14.862,0,0,1,5.05,7.847,14.829,14.829,0,0,1,4.787-7.625,16.294,16.294,0,0,1,9.943-3.858c.071,0,.071-.183.071-.327h0v-.017h0v-1.9a15.857,15.857,0,0,0-6.18,1.346,15.133,15.133,0,0,0-5.229,3.813.267.267,0,1,1-.4-.354,15.676,15.676,0,0,1,5.414-3.949,16.4,16.4,0,0,1,6.4-1.392V39.518c0-.247-.012-.544-.038-.87-.025-.309-.061-.633-.109-.953-.01-.07-.022-.139-.033-.208a15.978,15.978,0,0,0-6.59,3.426,21.787,21.787,0,0,0-5.384,6.755.267.267,0,0,1-.478-.239,22.344,22.344,0,0,1,5.518-6.927,16.5,16.5,0,0,1,6.836-3.541,13.487,13.487,0,0,0-1.514-3.975,16.687,16.687,0,0,0-1.962.9,17.271,17.271,0,0,0-2.219,1.415,15.511,15.511,0,0,0-4.5,5.489,34.909,34.909,0,0,0-2.447,6.814.268.268,0,0,1-.517-.138,35.4,35.4,0,0,1,2.489-6.919,16.035,16.035,0,0,1,4.652-5.673,17.816,17.816,0,0,1,2.288-1.459,17.154,17.154,0,0,1,1.935-.889,14.435,14.435,0,0,0-3.094-3.5q-.176-.144-.356-.282c-.865.777-1.775,1.6-2.561,2.4-4.259,4.364-4.917,10.218-5.565,15.985l-.046.409a.268.268,0,0,1-.532-.059l.046-.409c.658-5.858,1.326-11.8,5.713-16.3.78-.8,1.662-1.6,2.5-2.355a15.272,15.272,0,0,0-3.961-2.021ZM113.849,46.329a15.98,15.98,0,0,0-9.059,0c3.246,3.915,4.2,8.488,4.531,13.161.329-4.671,1.284-9.244,4.528-13.158Z" transform="translate(-77.835 -4.61)" fill="rgba(0,86,47,0.2)"/>
</svg>
