<svg xmlns="http://www.w3.org/2000/svg" width="28.055" height="28.056" viewBox="0 0 28.055 28.056"><path d="M108.063,25.97a13.614,13.614,0,0,0-1.747.114l.24-.033a13.2,13.2,0,0,0-3.345.908l.216-.09a13.337,13.337,0,0,0-1.759.9c-.279.171-.551.354-.818.546-.063.045-.126.093-.189.141l-.093.072c-.129.1.183-.144.057-.045s-.267.213-.4.321a12.853,12.853,0,0,0-1.4,1.373c-.1.117-.2.237-.3.36-.051.06-.1.123-.147.183s-.135.18.045-.057c-.03.042-.063.084-.1.126-.2.264-.384.534-.561.809a13.126,13.126,0,0,0-1.028,1.96l.09-.216a13.077,13.077,0,0,0-.908,3.345c.012-.081.021-.159.033-.24a13.375,13.375,0,0,0,0,3.495c-.012-.081-.021-.159-.033-.24a13.2,13.2,0,0,0,.908,3.345l-.09-.216a13.338,13.338,0,0,0,.9,1.759c.171.279.354.551.546.818.045.063.093.126.141.189.024.03.048.063.072.093.1.129-.144-.183-.045-.057s.213.267.321.4a12.852,12.852,0,0,0,1.373,1.4c.117.1.237.2.36.3.06.051.123.1.183.147s.18.135-.057-.045c.042.03.084.063.126.1.264.2.534.384.809.561a13.125,13.125,0,0,0,1.96,1.028l-.216-.09a13.078,13.078,0,0,0,3.345.908l-.24-.033a13.374,13.374,0,0,0,3.495,0l-.24.033a13.2,13.2,0,0,0,3.345-.908l-.216.09a13.337,13.337,0,0,0,1.759-.9c.279-.171.551-.354.818-.546.063-.045.126-.093.189-.141l.093-.072c.129-.1-.183.144-.057.045s.267-.213.4-.321a12.853,12.853,0,0,0,1.4-1.373c.1-.117.2-.237.3-.36.051-.06.1-.123.147-.183s.135-.18-.045.057c.03-.042.063-.084.1-.126.2-.264.384-.534.561-.809a13.124,13.124,0,0,0,1.028-1.96l-.09.216a13.077,13.077,0,0,0,.908-3.345c-.012.081-.021.159-.033.24a13.374,13.374,0,0,0,0-3.495c.012.081.021.159.033.24a13.2,13.2,0,0,0-.908-3.345l.09.216a13.338,13.338,0,0,0-.9-1.759c-.171-.279-.354-.551-.546-.818-.045-.063-.093-.126-.141-.189-.024-.03-.048-.063-.072-.093-.1-.129.144.183.045.057s-.213-.267-.321-.4a12.853,12.853,0,0,0-1.373-1.4c-.117-.1-.237-.2-.36-.3-.06-.051-.123-.1-.183-.147s-.18-.135.057.045c-.042-.03-.084-.063-.126-.1-.264-.2-.534-.384-.809-.561a13.125,13.125,0,0,0-1.96-1.028l.216.09a13.077,13.077,0,0,0-3.345-.908l.24.033a13.614,13.614,0,0,0-1.747-.114.9.9,0,1,1,0-1.8,14.141,14.141,0,0,1,4.3.671,13.881,13.881,0,0,1,3.759,1.876,14.5,14.5,0,0,1,3.123,3.021,13.983,13.983,0,0,1,2.835,7.931,14.094,14.094,0,0,1-.516,4.346,14,14,0,0,1-4.529,6.957,14.592,14.592,0,0,1-3.756,2.242,13.811,13.811,0,0,1-4.19.971,14.051,14.051,0,0,1-4.376-.363,14.046,14.046,0,0,1-9.4-7.766,14.5,14.5,0,0,1-1.193-4.313,14,14,0,0,1,11.708-15.388,15.053,15.053,0,0,1,2.23-.183.9.9,0,1,1,0,1.8Z" transform="translate(-94.037 -24.172)" fill="#f8fff8"/><path d="M306.589,157.932l-1.861,1.861-2.913,2.913-.456.456-.117.117-.024.024,0,0c-.117.108.1-.159.045-.066a1.306,1.306,0,0,0-.066.129l.09-.216a1.036,1.036,0,0,0-.042.159c.012-.081.021-.159.033-.24a.773.773,0,0,0,0,.2c-.012-.081-.021-.159-.033-.24a.952.952,0,0,0,.042.159l-.09-.216a.89.89,0,0,0,.045.093c.051.093.081.045-.054-.06a.3.3,0,0,1,.03.033l.018.018.09.09.369.369,1.265,1.265,3.63,3.63a.9.9,0,0,1-1.271,1.271l-1.954-1.954-2.934-2.934a3.744,3.744,0,0,1-.77-.875,1.649,1.649,0,0,1,.306-1.915c.084-.087.171-.171.255-.255l2.761-2.761c.767-.767,1.526-1.541,2.3-2.3l.039-.039a.9.9,0,0,1,1.274,1.277Z" transform="translate(-290.051 -149.149)" fill="#f8fff8"/></svg>