<svg xmlns="http://www.w3.org/2000/svg" width="530.762" height="408.802" viewBox="0 0 530.762 408.802">
  <g id="noun-barber-1742383" transform="translate(-84.697 -75.601)">
    <path id="Path_87" data-name="Path 87" d="M350,343.84a72.574,72.574,0,0,0-29.121,1.121c-5.6,1.68-11.762-1.121-15.121-5.6L274.4,296.8l102.48-137.2c19.6-26.879,14-64.4-12.32-84l-117.6,158.48L129.359,75.6c-26.879,19.6-31.922,57.68-12.32,84l102.48,137.2L188.16,339.359c-3.359,4.48-9.52,7.281-15.121,5.6A65.63,65.63,0,0,0,140,344.4c-27.441,6.16-49.281,29.121-54.32,57.121C78.4,445.762,112.559,484.4,155.121,484.4a70.624,70.624,0,0,0,70.559-70.559,72.384,72.384,0,0,0-10.078-36.4c-2.8-5.039-2.238-11.2,1.121-16.238l30.238-40.879L277.2,361.207a15.439,15.439,0,0,1,1.121,16.238,70.418,70.418,0,0,0-8.961,49.281c5.6,30.238,30.238,53.762,60.48,57.121a70.946,70.946,0,0,0,79.52-78.4A71.883,71.883,0,0,0,350,343.84ZM154.56,442.961a29.28,29.28,0,0,1-29.121-29.121c0-16.238,13.441-29.68,29.121-29.68,16.238,0,29.121,13.441,29.121,29.68C184.24,430.078,170.8,442.961,154.56,442.961Zm91.84-156.8a14,14,0,1,1,14-14C260.962,280,254.24,286.161,246.4,286.161Zm92.4,156.8c-16.238,0-29.68-13.441-29.68-29.121a29.879,29.879,0,0,1,29.68-29.68c16.239,0,29.121,13.441,29.121,29.68A28.925,28.925,0,0,1,338.8,442.961Z"/>
    <path id="Path_88" data-name="Path 88" d="M585.76,77.84H456.96a7.412,7.412,0,0,0-7.281,7.281V86.8a7.412,7.412,0,0,0,7.281,7.281h68.32V110.32H456.96a7.412,7.412,0,0,0-7.281,7.281v1.68a7.412,7.412,0,0,0,7.281,7.281h68.32V142.8H456.96a7.412,7.412,0,0,0-7.281,7.281V151.2a7.412,7.412,0,0,0,7.281,7.281h68.32v16.238H456.96A7.412,7.412,0,0,0,449.679,182v1.68a7.412,7.412,0,0,0,7.281,7.281h68.32V207.2H456.96a7.412,7.412,0,0,0-7.281,7.281v1.68a7.412,7.412,0,0,0,7.281,7.281h68.32v16.238H456.96a7.412,7.412,0,0,0-7.281,7.281v1.68a7.412,7.412,0,0,0,7.281,7.281h68.32v16.238H456.96a7.412,7.412,0,0,0-7.281,7.281v1.68a7.412,7.412,0,0,0,7.281,7.281h68.32v16.238H456.96a7.412,7.412,0,0,0-7.281,7.281v1.68a7.412,7.412,0,0,0,7.281,7.281h68.32v16.238H456.96a7.412,7.412,0,0,0-7.281,7.281v1.68a7.412,7.412,0,0,0,7.281,7.281h68.32V369.6H456.96a7.412,7.412,0,0,0-7.281,7.281v1.68a7.412,7.412,0,0,0,7.281,7.281h68.32v16.238l-68.32,0a7.412,7.412,0,0,0-7.281,7.281v1.68a7.412,7.412,0,0,0,7.281,7.281h68.32v16.238H456.96a7.412,7.412,0,0,0-7.281,7.281v.559a7.412,7.412,0,0,0,7.281,7.281h68.32v16.238l-68.32,0a7.412,7.412,0,0,0-7.281,7.281v1.68a7.412,7.412,0,0,0,7.281,7.281H585.2a30.112,30.112,0,0,0,30.238-30.238l0-343.85c.559-16.8-12.883-30.238-29.68-30.238Z"/>
  </g>
</svg>
