<svg xmlns="http://www.w3.org/2000/svg" width="22.901" height="29.58" viewBox="0 0 22.901 29.58"><g transform="translate(-75.131 -29.638)"><path d="M177.743,56.439c0,.045,0,.09,0,.136a.481.481,0,0,1-.006.068c0,.071.01-.061.01-.061-.026.09-.032.184-.058.274-.013.042-.026.081-.039.123a.344.344,0,0,1-.023.061s.058-.119.023-.055c-.042.081-.081.165-.129.242-.026.042-.058.081-.081.123-.036.065.039-.055.039-.045s-.036.042-.039.048a2.149,2.149,0,0,1-.187.2c-.032.029-.065.055-.094.084-.09.078.1-.061,0,0-.078.048-.152.1-.236.142-.039.019-.078.036-.113.055a.385.385,0,0,1,.055-.023.634.634,0,0,1-.061.023,2.762,2.762,0,0,1-.268.074c-.042.01-.087.01-.129.023,0,0,.136-.013.061-.01a.481.481,0,0,0-.068.006c-.045,0-.09,0-.136,0H158.942c-.078,0-.158-.006-.236-.01s.061.01.061.01a.445.445,0,0,0-.065-.01c-.042-.006-.084-.016-.129-.026-.026-.006-.268-.061-.265-.084,0,0,.119.058.055.023-.019-.01-.039-.016-.058-.026l-.113-.058c-.036-.019-.074-.042-.11-.065-.016-.013-.036-.023-.052-.036s-.023-.016-.036-.023c-.029-.019-.023-.016.016.013.042,0,.039.036,0,0a.565.565,0,0,1-.048-.042l-.094-.084c-.036-.036-.068-.071-.1-.107a.561.561,0,0,0-.042-.048.226.226,0,0,1-.026-.032c-.023-.026-.016-.023.013.016,0,.039.029.042,0,0a.492.492,0,0,0-.036-.052c-.023-.036-.045-.071-.065-.107a.749.749,0,0,1-.058-.113l-.029-.058c-.045-.094.013.036.016.036a1.1,1.1,0,0,1-.078-.245l-.029-.126c0-.023-.006-.042-.01-.065-.016-.087.01.129.006.042,0-.068-.01-.136-.01-.2v-23.9c0-.074,0-.149,0-.223a.625.625,0,0,0,.01-.132s-.023.136-.01.061c0-.023.006-.042.01-.065a1.97,1.97,0,0,1,.071-.271.342.342,0,0,0,.019-.061c.016-.048-.006-.045,0,0s-.023.048,0,0l.029-.058c.042-.081.087-.161.136-.236a.292.292,0,0,0,.036-.052c.036-.065-.039.055-.039.045s.068-.081.081-.1a2.156,2.156,0,0,1,.194-.191.56.56,0,0,0,.048-.042c.042-.036.042-.006,0,0s-.042.029,0,0a.493.493,0,0,0,.052-.036,2.526,2.526,0,0,1,.258-.145c.006,0,.052-.029.058-.026s-.129.045-.055.026c.042-.01.081-.029.123-.042a1.994,1.994,0,0,1,.275-.065c.123-.023-.123.006,0,0,.045,0,.09-.006.132-.006h17.4c.039,0,.074,0,.113,0,.023,0,.045,0,.068,0a.319.319,0,1,0-.039-.006c.09.026.184.032.275.058l.123.039a.344.344,0,0,1,.061.023s-.132-.061-.036-.016a2.439,2.439,0,0,1,.223.119l.107.068c.045.029.042,0,0,0-.039-.029-.042-.032-.016-.013.01.01.023.016.032.026a2.308,2.308,0,0,1,.184.171c.029.029.055.061.084.094.006.006.042.042.039.048,0-.01-.081-.113-.026-.029s.094.142.132.216c.019.039.039.074.055.113s0,.045,0,0q-.029-.068-.01-.019c.006.013.01.026.016.039a2.763,2.763,0,0,1,.074.268c.01.042.01.087.023.129,0,0-.013-.136-.01-.061,0,.029.006.058.006.087s0,.078,0,.119c0,.22,0,.439,0,.659V55.922c0,.171,0,.346,0,.517a.646.646,0,1,0,1.292,0V32.91a6.2,6.2,0,0,0-.029-.849,2.8,2.8,0,0,0-2.793-2.422H158.929a2.784,2.784,0,0,0-2.793,2.774V56.339a3.848,3.848,0,0,0,.048.607,2.737,2.737,0,0,0,1.456,1.96,2.987,2.987,0,0,0,1.324.31h16.318c.32,0,.643,0,.962,0a2.811,2.811,0,0,0,2.79-2.774.646.646,0,0,0-1.292,0Z" transform="translate(-81.005)" fill="#89e798"/><path d="M223.332,90.24h-13.66c-.63,0-1.269-.026-1.9,0h-.026l.646.646V85.516l-.646.646h13.66c.63,0,1.269.026,1.9,0h.026l-.646-.646v5.371a.646.646,0,1,0,1.292,0V85.516a.656.656,0,0,0-.646-.646h-13.66c-.633,0-1.266-.016-1.9,0h-.026a.656.656,0,0,0-.646.646v5.371a.656.656,0,0,0,.646.646h13.66c.633,0,1.266.016,1.9,0h.026a.646.646,0,0,0,0-1.292Z" transform="translate(-128.96 -51.963)" fill="#89e798"/><path d="M211.406,225.1h-3.659l.646.646v-3.013l-.646.646h3.659l-.646-.646v3.013a.646.646,0,1,0,1.292,0v-3.013a.656.656,0,0,0-.646-.646h-3.659a.656.656,0,0,0-.646.646v3.013a.656.656,0,0,0,.646.646h3.659a.646.646,0,0,0,0-1.292Z" transform="translate(-128.961 -181.084)" fill="#89e798"/><path d="M312.356,225.1H308.7l.646.646v-3.013l-.646.646h3.659l-.646-.646v3.013a.646.646,0,1,0,1.292,0v-3.013a.656.656,0,0,0-.646-.646H308.7a.656.656,0,0,0-.646.646v3.013a.656.656,0,0,0,.646.646h3.659a.646.646,0,0,0,0-1.292Z" transform="translate(-223.95 -181.084)" fill="#89e798"/><path d="M413.366,225.1h-3.659l.646.646v-3.013l-.646.646h3.659l-.646-.646v3.013a.646.646,0,1,0,1.292,0v-3.013a.656.656,0,0,0-.646-.646h-3.659a.656.656,0,0,0-.646.646v3.013a.656.656,0,0,0,.646.646h3.659a.646.646,0,0,0,0-1.292Z" transform="translate(-318.995 -181.084)" fill="#89e798"/><path d="M211.406,317.41h-3.659l.646.646v-3.013l-.646.646h3.659l-.646-.646v3.013a.646.646,0,0,0,1.292,0v-3.013a.656.656,0,0,0-.646-.646h-3.659a.656.656,0,0,0-.646.646v3.013a.656.656,0,0,0,.646.646h3.659a.646.646,0,1,0,0-1.292Z" transform="translate(-128.961 -267.943)" fill="#89e798"/><path d="M312.356,317.41H308.7l.646.646v-3.013l-.646.646h3.659l-.646-.646v3.013a.646.646,0,0,0,1.292,0v-3.013a.656.656,0,0,0-.646-.646H308.7a.656.656,0,0,0-.646.646v3.013a.656.656,0,0,0,.646.646h3.659a.646.646,0,0,0,0-1.292Z" transform="translate(-223.95 -267.943)" fill="#89e798"/><path d="M211.406,409.78h-3.659l.646.646v-3.013l-.646.646h3.659l-.646-.646v3.013a.646.646,0,0,0,1.292,0v-3.013a.656.656,0,0,0-.646-.646h-3.659a.656.656,0,0,0-.646.646v3.013a.656.656,0,0,0,.646.646h3.659a.646.646,0,1,0,0-1.292Z" transform="translate(-128.961 -354.858)" fill="#89e798"/><path d="M312.356,409.78H308.7l.646.646v-3.013l-.646.646h3.659l-.646-.646v3.013a.646.646,0,1,0,1.292,0v-3.013a.656.656,0,0,0-.646-.646H308.7a.656.656,0,0,0-.646.646v3.013a.656.656,0,0,0,.646.646h3.659a.646.646,0,0,0,0-1.292Z" transform="translate(-223.95 -354.858)" fill="#89e798"/><path d="M412.718,315.089v8.464l.646-.646H409.7l.646.646v-8.464l-.646.646h3.659a.646.646,0,0,0,0-1.292H409.7a.656.656,0,0,0-.646.646v8.464a.656.656,0,0,0,.646.646h3.659a.656.656,0,0,0,.646-.646v-8.464a.646.646,0,1,0-1.292,0Z" transform="translate(-318.993 -267.986)" fill="#89e798"/></g></svg>