<svg xmlns="http://www.w3.org/2000/svg" width="700.006" height="519.36" viewBox="0 0 700.006 519.36">
  <g id="noun-compact-camera-4294958" transform="translate(0 -25.406)">
    <path id="Path_403" data-name="Path 403" d="M395.16,160.89c-93.383,0-169.36,75.973-169.36,169.36s75.973,169.36,169.36,169.36a169.625,169.625,0,0,0,48.379-7.012l-6.434-21.645a146.992,146.992,0,0,1-41.945,6.074c-80.93,0-146.77-65.844-146.77-146.77s65.844-146.77,146.77-146.77,146.77,65.844,146.77,146.77a147.561,147.561,0,0,1-83.875,132.66l9.676,20.4a170.241,170.241,0,0,0,96.781-153.06c0-93.383-75.973-169.36-169.36-169.36Z"/>
    <path id="Path_404" data-name="Path 404" d="M395.16,296.37a33.871,33.871,0,1,0,33.871,33.871A33.91,33.91,0,0,0,395.16,296.37Zm0,45.16a11.289,11.289,0,1,1,11.289-11.289A11.3,11.3,0,0,1,395.16,341.53Z"/>
    <path id="Path_405" data-name="Path 405" d="M395.16,251.21a79.031,79.031,0,1,0,79.031,79.031A79.125,79.125,0,0,0,395.16,251.21Zm0,135.48a56.453,56.453,0,1,1,56.453-56.453A56.516,56.516,0,0,1,395.16,386.69Z"/>
    <path id="Path_406" data-name="Path 406" d="M643.55,115.73h-92.8l-11.9-47.566A56.343,56.343,0,0,0,484.1,25.406H306.227a56.37,56.37,0,0,0-54.77,42.758L239.57,115.73H203.226V104.437a33.91,33.91,0,0,0-33.871-33.871h-45.16a33.915,33.915,0,0,0-33.871,33.871v11.289l-33.871,0A56.516,56.516,0,0,0,0,172.183v316.13a56.516,56.516,0,0,0,56.453,56.453h587.1a56.516,56.516,0,0,0,56.453-56.453l0-316.13a56.515,56.515,0,0,0-56.453-56.449ZM257.21,138.308l16.156-64.672a33.844,33.844,0,0,1,32.867-25.648H484.1A33.845,33.845,0,0,1,516.97,73.64l16.156,64.668h110.43a33.91,33.91,0,0,1,33.871,33.871v282.26H569.747a213.433,213.433,0,0,0,17.363-28.992,44.248,44.248,0,0,0,22.57,6.414,45.16,45.16,0,0,0,0-90.32c-.191,0-.383.055-.574.055.2-3.785.574-7.52.574-11.348,0-118.29-96.227-214.52-214.52-214.52s-214.52,96.227-214.52,214.52a213.1,213.1,0,0,0,39.934,124.2l-85.094,0V272.654a56.549,56.549,0,0,0,45.16-55.312V138.311Zm349.48,226.1a22.046,22.046,0,0,1,2.992-.293,22.582,22.582,0,0,1,0,45.164,22.126,22.126,0,0,1-13.547-4.719,212.01,212.01,0,0,0,10.555-40.152ZM395.17,522.178c-105.84,0-191.93-86.1-191.93-191.93s86.1-191.93,191.93-191.93,191.93,86.1,191.93,191.93S501,522.178,395.17,522.178ZM22.59,273.788h90.324v180.64H22.59Zm90.32-169.36A11.3,11.3,0,0,1,124.2,93.139h45.16a11.3,11.3,0,0,1,11.289,11.289v11.289H112.906ZM56.461,138.3h101.61V217.33A33.91,33.91,0,0,1,124.2,251.2l-101.61,0V172.174A33.913,33.913,0,0,1,56.461,138.3Zm0,383.87A33.91,33.91,0,0,1,22.59,488.3V477.009H239.16a215.329,215.329,0,0,0,60.785,45.16Zm587.09,0H490.391a215.277,215.277,0,0,0,60.785-45.16h126.25V488.3a33.91,33.91,0,0,1-33.871,33.871Z"/>
    <path id="Path_407" data-name="Path 407" d="M67.742,228.63H112.9a22.606,22.606,0,0,0,22.582-22.582V183.466A22.606,22.606,0,0,0,112.9,160.884l-45.16,0A22.606,22.606,0,0,0,45.16,183.47v22.582A22.605,22.605,0,0,0,67.742,228.63Zm0-45.16H112.9l.012,22.582-45.172,0Z"/>
    <path id="Path_408" data-name="Path 408" d="M304.84,70.566H485.48V93.148H304.84Z"/>
    <path id="Path_409" data-name="Path 409" d="M620.97,228.63A33.871,33.871,0,1,0,587.1,194.759,33.91,33.91,0,0,0,620.97,228.63Zm0-45.16a11.289,11.289,0,1,1-11.289,11.289A11.3,11.3,0,0,1,620.97,183.47Z"/>
  </g>
</svg>
