<svg xmlns="http://www.w3.org/2000/svg" width="700.006" height="406.451" viewBox="0 0 700.006 406.451">
  <g id="noun-car-4295402" transform="translate(-0.004 -95.97)">
    <path id="Path_209" data-name="Path 209" d="M530.64,389.52a33.871,33.871,0,1,0,33.871,33.871A33.91,33.91,0,0,0,530.64,389.52Zm0,45.16a11.289,11.289,0,1,1,11.289-11.289A11.3,11.3,0,0,1,530.64,434.68Z"/>
    <path id="Path_210" data-name="Path 210" d="M169.36,389.52a33.871,33.871,0,1,0,33.871,33.871A33.91,33.91,0,0,0,169.36,389.52Zm0,45.16a11.289,11.289,0,1,1,11.289-11.289A11.3,11.3,0,0,1,169.36,434.68Z"/>
    <path id="Path_211" data-name="Path 211" d="M682.32,263.63l-88.109-19.578-71.285-115.84a67.279,67.279,0,0,0-57.7-32.242H255.391a67.754,67.754,0,0,0-55.7,29.184l-82.184,118.71L36.313,260.1A45.288,45.288,0,0,0,0,304.379v130.3a22.606,22.606,0,0,0,22.582,22.582H98.063a78.861,78.861,0,0,0,142.594,0h218.7a78.861,78.861,0,0,0,142.594,0h75.477a22.606,22.606,0,0,0,22.582-22.582V285.669a22.44,22.44,0,0,0-17.68-22.039ZM40.73,282.235,121.929,266a22.535,22.535,0,0,0,14.137-9.281L218.25,138.01a45.177,45.177,0,0,1,37.133-19.465h209.84a44.875,44.875,0,0,1,38.465,21.5l71.277,115.83A22.7,22.7,0,0,0,589.3,266.09l88.1,19.578v13.527H654.828a22.606,22.606,0,0,0-22.582,22.582v22.582a22.606,22.606,0,0,0,22.582,22.582H677.41v22.582H601.933a79.127,79.127,0,0,0-60.008-44.258v-87.8a22.469,22.469,0,0,0-3.793-12.52L475.64,151.2a22.522,22.522,0,0,0-18.785-10.07H265.715a22.524,22.524,0,0,0-18.785,10.059l-38.457,57.684h-5.25a22.606,22.606,0,0,0-22.582,22.582v22.582a22.606,22.606,0,0,0,22.582,22.582v75.477A78.632,78.632,0,0,0,98.055,389.516H22.578V366.934H45.16a22.606,22.606,0,0,0,22.582-22.582V321.77A22.606,22.606,0,0,0,45.16,299.188l-21.906.008a22.631,22.631,0,0,1,17.477-16.961Zm636.68,39.539v22.582H654.828V321.774ZM225.8,368.188V276.614H383.86v112.9H240.65A79.364,79.364,0,0,0,225.8,368.186Zm231.06-204.48,60.211,90.324-110.62,0v-90.32Zm-72.992,90.32H248.388V231.446A22.6,22.6,0,0,0,234.454,210.6l31.266-46.9H383.87ZM225.8,231.45v22.582H203.216V231.45Zm180.65,45.16h112.9v68.645a79.122,79.122,0,0,0-60.008,44.258H406.445ZM45.158,321.77v22.582H22.58V321.77ZM22.58,434.67V412.088H91.225a71.093,71.093,0,0,0,0,22.582Zm146.77,45.164A56.453,56.453,0,1,1,225.8,423.381,56.516,56.516,0,0,1,169.35,479.834Zm78.129-45.164a71.068,71.068,0,0,0,0-22.578h205.03a71.068,71.068,0,0,0,0,22.578Zm283.16,45.164a56.453,56.453,0,1,1,56.453-56.453A56.516,56.516,0,0,1,530.639,479.834Zm78.129-45.164a71.068,71.068,0,0,0,0-22.578h68.645v22.582Z"/>
    <path id="Path_212" data-name="Path 212" d="M316.13,299.2h45.16v22.582H316.13Z"/>
  </g>
</svg>
