<svg xmlns="http://www.w3.org/2000/svg" width="13.743" height="24.511" viewBox="0 0 13.743 24.511"><path d="M163.178,33.47l1.074-1.074,2.569-2.569,3.106-3.106,2.684-2.684c.434-.434.864-.876,1.306-1.306l.017-.017v2.12l-1.074-1.074-2.569-2.569-3.106-3.106L164.5,15.4c-.434-.434-.874-.866-1.306-1.306l-.017-.017a1.543,1.543,0,0,1-.439-1.059,1.516,1.516,0,0,1,.439-1.059,1.481,1.481,0,0,1,1.059-.447,1.559,1.559,0,0,1,1.059.439l1.074,1.074,2.569,2.569,3.106,3.106,2.684,2.684c.434.434.874.866,1.306,1.306l.017.017a1.522,1.522,0,0,1,0,2.12l-9.432,9.432c-.434.434-.866.874-1.306,1.306l-.017.017a1.543,1.543,0,0,1-1.059.439,1.5,1.5,0,0,1-1.5-1.5,1.553,1.553,0,0,1,.439-1.056Z" transform="translate(-162.737 -11.513)" fill="#00562f"/></svg>