<svg xmlns="http://www.w3.org/2000/svg" width="560.003" height="559.997" viewBox="0 0 560.003 559.997">
  <g id="noun-digital-disc-tool-4167599" transform="translate(-69.998 0.004)">
    <path id="Path_426" data-name="Path 426" d="M611.93,171.61H593.864A18.085,18.085,0,0,0,575.8,189.676v11.012L485.474,223.27l.008-33.6a27.055,27.055,0,0,0-19.8-25.969A90.255,90.255,0,1,0,326.521,65.226a72.164,72.164,0,1,0-105.2,97.574,26.989,26.989,0,0,0-23.2,17.84H178.385V162.574l-54.191,0V252.9h54.195V234.836h18.066v54.195l-99.359,0a27.131,27.131,0,0,0-27.1,27.1V532.9a27.131,27.131,0,0,0,27.1,27.1h325.16a27.131,27.131,0,0,0,27.1-27.1V361.285h9.031a27.131,27.131,0,0,0,27.1-27.1v-33.6l90.324,22.582,0,11.023a18.085,18.085,0,0,0,18.066,18.066h18.066A18.085,18.085,0,0,0,630,334.19l0-144.52a18.082,18.082,0,0,0-18.066-18.062ZM413.22,18.06a72.258,72.258,0,1,1-72.258,72.258A72.344,72.344,0,0,1,413.22,18.06ZM359.251,162.58H316.329a72.464,72.464,0,0,0,19.1-26.555,91.1,91.1,0,0,0,23.82,26.555Zm-144.74-54.195a54.195,54.195,0,1,1,54.195,54.195,54.25,54.25,0,0,1-54.195-54.195ZM160.32,234.835H142.254v-54.2H160.32Zm18.062-18.066V198.7h18.066v18.066ZM97.093,307.093h325.16a9.041,9.041,0,0,1,9.031,9.031v9.031H88.064v-9.031a9.041,9.041,0,0,1,9.031-9.031Zm280-18.066H250.643V216.769h126.45Zm45.16,252.9H97.093a9.041,9.041,0,0,1-9.031-9.031V343.216h343.23V532.9a9.044,9.044,0,0,1-9.035,9.031Zm45.16-207.74a9.041,9.041,0,0,1-9.031,9.031h-9.031v-27.1a27.131,27.131,0,0,0-27.1-27.1h-27.1V198.7H232.575v90.324H214.509V189.667a9.046,9.046,0,0,1,9.031-9.031H458.38a9.046,9.046,0,0,1,9.031,9.031Zm18.066-52.219V241.882L575.8,219.3v85.254Zm108.39,52.219V189.667h18.066l.008,144.52Z"/>
    <path id="Path_427" data-name="Path 427" d="M268.71,144.52a36.129,36.129,0,1,0-36.129-36.129A36.164,36.164,0,0,0,268.71,144.52Zm0-54.191A18.066,18.066,0,1,1,250.644,108.4,18.085,18.085,0,0,1,268.71,90.329Z"/>
    <path id="Path_428" data-name="Path 428" d="M413.23,126.45A36.129,36.129,0,1,0,377.1,90.321,36.164,36.164,0,0,0,413.23,126.45Zm0-54.195a18.066,18.066,0,1,1-18.066,18.066A18.085,18.085,0,0,1,413.23,72.255Z"/>
    <path id="Path_429" data-name="Path 429" d="M422.26,144.52a9.031,9.031,0,1,1-9.031-9.031,9.031,9.031,0,0,1,9.031,9.031"/>
    <path id="Path_430" data-name="Path 430" d="M455.64,125.24a9.033,9.033,0,1,0-3.3-12.34,9.04,9.04,0,0,0,3.3,12.34Z"/>
    <path id="Path_431" data-name="Path 431" d="M464.67,71.047a9.033,9.033,0,1,0-12.336-3.3,9.038,9.038,0,0,0,12.336,3.3Z"/>
    <path id="Path_432" data-name="Path 432" d="M422.26,36.129a9.031,9.031,0,1,1-9.031-9.031,9.031,9.031,0,0,1,9.031,9.031"/>
    <path id="Path_433" data-name="Path 433" d="M361.78,71.047a9.033,9.033,0,1,0-3.3-12.34A9.04,9.04,0,0,0,361.78,71.047Z"/>
    <path id="Path_434" data-name="Path 434" d="M370.81,125.24a9.033,9.033,0,1,0-12.34-3.3,9.038,9.038,0,0,0,12.34,3.3Z"/>
    <path id="Path_435" data-name="Path 435" d="M169.36,379.36a63.227,63.227,0,1,0,63.227,63.227A63.3,63.3,0,0,0,169.36,379.36Zm9.031,107.47V469.678H160.325V486.83a45.3,45.3,0,0,1-35.215-35.215h17.152V433.549H125.11a45.3,45.3,0,0,1,35.219-35.215v17.152H178.4V398.334a45.3,45.3,0,0,1,35.215,35.215H196.458v18.066H213.61A45.3,45.3,0,0,1,178.391,486.83Z"/>
    <path id="Path_436" data-name="Path 436" d="M350,379.36a63.227,63.227,0,1,0,63.227,63.227A63.3,63.3,0,0,0,350,379.36Zm9.031,107.47V469.678H340.965V486.83a45.3,45.3,0,0,1-35.215-35.215H322.9V433.549H305.75a45.3,45.3,0,0,1,35.215-35.215l0,17.152h18.066V398.334a45.3,45.3,0,0,1,35.215,35.215H377.1v18.066H394.25a45.3,45.3,0,0,1-35.219,35.215Z"/>
  </g>
</svg>
