<svg xmlns="http://www.w3.org/2000/svg" width="560.002" height="559.993" viewBox="0 0 560.002 559.993">
  <g id="noun-3d-glasses-4197808" transform="translate(-69.992 0)">
    <path id="Path_1" data-name="Path 1" d="M627.59,375.45l-12.121-60.633a354.133,354.133,0,0,1-5.328-36.383l-4.254-45.414C593.418,100.17,483.417,0,350,0S106.577,100.17,94.117,233l-4.254,45.414A358.164,358.164,0,0,1,84.535,314.8L72.414,375.43A124.042,124.042,0,0,0,194.082,523.864h14.832a170.55,170.55,0,0,0,104.95,36.129h72.258a170.571,170.571,0,0,0,104.95-36.129H505.9a124.084,124.084,0,0,0,121.68-148.422ZM313.87,541.94c-81.617,0-148.37-64.059-153.09-144.52H331.93V379.354a18.066,18.066,0,1,1,36.132,0V397.42h171.15c-4.719,80.461-71.473,144.52-153.09,144.52ZM197.39,172.44a54.246,54.246,0,0,0,53.254,44.34h289.03v18.066H160.324V216.78A45.166,45.166,0,0,1,197.39,172.44Zm-46.1,80.469h397.42a9.046,9.046,0,0,1,9.031,9.031V370.33a9.046,9.046,0,0,1-9.031,9.031l-162.58,0a36.129,36.129,0,1,0-72.258,0H151.29a9.046,9.046,0,0,1-9.031-9.031V261.944a9.046,9.046,0,0,1,9.031-9.031Zm359.89,252.63a170.768,170.768,0,0,0,46.184-109.67A27.03,27.03,0,0,0,575.8,370.326V261.936A27.056,27.056,0,0,0,557.737,236.5l0-19.727v-9.031a63.3,63.3,0,0,0-63.227-63.227v18.066a45.231,45.231,0,0,1,44.25,36.129H250.644a36.129,36.129,0,1,1,36.129-36.129v18.066h18.066V162.583a54.16,54.16,0,0,0-107.668-8.418,63.264,63.264,0,0,0-54.914,62.609V236.5a27.061,27.061,0,0,0-18.062,25.434v108.39a27.044,27.044,0,0,0,18.445,25.551,170.767,170.767,0,0,0,46.184,109.67c-56.016-2.777-100.76-49.074-100.76-105.76a106.563,106.563,0,0,1,2.059-20.793l12.121-60.633a375.8,375.8,0,0,0,5.609-38.242l4.254-45.414C123.685,111.2,225.957,18.074,350,18.074s226.31,93.133,237.89,216.63l4.254,45.422a371.245,371.245,0,0,0,5.609,38.234l12.121,60.633a106.592,106.592,0,0,1,2.059,20.793c0,56.688-44.742,102.98-100.75,105.76Z"/>
    <path id="Path_2" data-name="Path 2" d="M350,54.195A202.542,202.542,0,0,1,463.82,88.781l10.105-14.965A220.48,220.48,0,0,0,350,36.128Z"/>
    <path id="Path_3" data-name="Path 3" d="M479.72,100.68a203.226,203.226,0,0,1,15.246,14.027l12.9-12.645a217.293,217.293,0,0,0-16.609-15.273Z"/>
    <path id="Path_4" data-name="Path 4" d="M178.39,361.29H286.78a18.085,18.085,0,0,0,18.066-18.066v-54.2a18.085,18.085,0,0,0-18.066-18.066l-108.39.008a18.085,18.085,0,0,0-18.066,18.066v54.2a18.087,18.087,0,0,0,18.066,18.059Zm0-72.258H286.78l.008,54.2H178.4Z"/>
    <path id="Path_5" data-name="Path 5" d="M413.23,361.29H521.62a18.085,18.085,0,0,0,18.066-18.066v-54.2a18.085,18.085,0,0,0-18.066-18.066l-108.39.008a18.085,18.085,0,0,0-18.066,18.066v54.2a18.082,18.082,0,0,0,18.066,18.059Zm0-59.484,41.422,41.422H413.23ZM426,289.033h28.648l54.2,54.2H480.2Zm95.625,41.434L480.2,289.033h41.422Z"/>
    <path id="Path_6" data-name="Path 6" d="M350,487.74a80.708,80.708,0,0,1-65.043-32.523L270.5,466.065a99.376,99.376,0,0,0,158.98,0l-14.453-10.848A80.657,80.657,0,0,1,350,487.741Z"/>
  </g>
</svg>
