<svg xmlns="http://www.w3.org/2000/svg" width="560.006" height="507.538" viewBox="0 0 560.006 507.538">
  <g id="noun-cleaning-2302639" transform="translate(-69.995 -26.239)">
    <path id="Path_247" data-name="Path 247" d="M581.88,231.78a26.274,26.274,0,1,0-18.551-7.692,26.24,26.24,0,0,0,18.551,7.692Zm0-34.984a8.745,8.745,0,1,1-8.75,8.746,8.748,8.748,0,0,1,8.75-8.746Z"/>
    <path id="Path_248" data-name="Path 248" d="M485.62,231.78a35.03,35.03,0,1,0-24.734-10.254A34.983,34.983,0,0,0,485.62,231.78Zm0-52.477a17.518,17.518,0,1,1-12.367,5.129A17.5,17.5,0,0,1,485.62,179.3Z"/>
    <path id="Path_249" data-name="Path 249" d="M73.578,486.2a250.623,250.623,0,0,0,150.16,47.555A282.491,282.491,0,0,0,312.6,519.982a8.744,8.744,0,0,0,4.781-4.187c38.062-73.027,35.578-120.45,27.9-179.47-4.723-36.3-20.789-49.422-43.414-54.031l0-6.777a26.23,26.23,0,0,0-13.125-22.688V52.488a26.25,26.25,0,1,0-52.5,0v200.34a26.221,26.221,0,0,0-13.125,22.688v5.555c-41.68,4.645-49.34,25.469-50.848,45.9-8.051,108.73-93.035,142.62-96.652,144.01A8.743,8.743,0,0,0,73.573,486.2ZM253.748,52.49a8.75,8.75,0,1,1,17.5,0V249.28h-17.5ZM240.623,275.51a8.757,8.757,0,0,1,8.75-8.746h26.25a8.757,8.757,0,0,1,8.75,8.746v4.711c-8.551-.453-17.7-.352-27.293-.238-4.879.055-9.977.113-15.285.113-.4,0-.773.012-1.172.016Zm-50.9,52.738c.957-12.941,2.27-30.66,52.07-30.66,5.379,0,10.539-.059,15.488-.117,46.109-.531,65.211-.742,70.648,41.1,7.371,56.7,9.648,99.152-24.438,165.97l0,0a282.629,282.629,0,0,1-83.617,11.242,174.13,174.13,0,0,0,55.074-70.738,8.748,8.748,0,0,0-16.149-6.735,157.671,157.671,0,0,1-65.875,74.277,8.715,8.715,0,0,0-1.766,1.219,244.08,244.08,0,0,1-34.32-6.723,178.081,178.081,0,0,0,52-56.676,8.749,8.749,0,0,0-15.176-8.711,158.3,158.3,0,0,1-57.629,57.781,9.181,9.181,0,0,0-.809.52A219.6,219.6,0,0,1,96.145,480.42c27.793-15.426,86.668-58.816,93.578-152.18Z"/>
    <path id="Path_250" data-name="Path 250" d="M227.5,332.36H280a8.746,8.746,0,0,0,0-17.492H227.5a8.746,8.746,0,0,0,0,17.492Z"/>
    <path id="Path_251" data-name="Path 251" d="M362.7,297.86l11.242,21.266,12.32,153.69h0a61.54,61.54,0,0,0,61.047,56.332h85.371a61.547,61.547,0,0,0,61.051-56.332l11.676-145.64c1.2-1.883,2.379-3.781,3.438-5.727l13.3-27.387A25.993,25.993,0,0,0,630,275.519a26.273,26.273,0,0,0-26.25-26.238H560a26.25,26.25,0,1,0-52.5,0H462.6a34.952,34.952,0,0,0-67.7,0H376.251A26.157,26.157,0,0,0,362.7,297.867Zm27.406,3.891h29.961c.023,12.789.051,27.223.082,41.625v0a91.642,91.642,0,0,1-29-28.621Zm198.17,20.23v0a104.1,104.1,0,0,1-28.066,26.09c-.035-15.91-.074-32.121-.105-46.32H589.9Zm15.477-55.215a8.746,8.746,0,0,1,0,17.492H560.062c-.016-7.031-.031-13.035-.039-17.492Zm-52.117,167.61a8.747,8.747,0,0,0,8.75-8.746c0-.332-.059-26.3-.133-57.691h0a135.136,135.136,0,0,0,25.793-18.207L576.3,471.422v0a43.962,43.962,0,0,1-43.609,40.238H447.316a43.969,43.969,0,0,1-43.609-40.238l-10.184-127.05A137.386,137.386,0,0,0,420.2,363.6c.086,33.977.2,63.121.336,63.5a8.733,8.733,0,0,0,8.6,7.277c1.809,0,2.281.359,4.508,2.266a22.737,22.737,0,0,0,31.793,0c2.227-1.906,2.7-2.266,4.508-2.266s2.281.359,4.508,2.266a22.746,22.746,0,0,0,31.8,0c2.227-1.91,2.7-2.27,4.516-2.27s2.293.359,4.523,2.27h0a22.775,22.775,0,0,0,31.816,0c2.234-1.91,2.707-2.27,4.527-2.27Zm-114.13-15.918V371.981a158.968,158.968,0,0,0,59.145,12.855,130.439,130.439,0,0,0,45.855-8.766v42.723a28.1,28.1,0,0,0-6.777,4.566c-2.231,1.91-2.707,2.27-4.523,2.27s-2.293-.359-4.527-2.27h0a22.765,22.765,0,0,0-31.812,0c-2.227,1.91-2.7,2.27-4.516,2.27s-2.277-.359-4.5-2.266v0a22.737,22.737,0,0,0-31.793,0c-2.227,1.906-2.7,2.266-4.5,2.266s-2.281-.359-4.508-2.266a26.773,26.773,0,0,0-7.531-4.906Zm96.25-177.93a8.76,8.76,0,0,1,8.75,8.746h-17.5A8.757,8.757,0,0,1,533.756,240.528Zm8.75,26.238v90.688a116.69,116.69,0,0,1-45.867,9.891,145.36,145.36,0,0,1-59.133-14.352V266.765Zm-113.75-26.238a17.445,17.445,0,0,1,15.066,8.746H413.689a17.441,17.441,0,0,1,15.066-8.746Zm-52.5,26.238h43.762c.008,4.457.016,10.457.027,17.492H376.256a8.746,8.746,0,0,1,0-17.492Z"/>
  </g>
</svg>
