<svg xmlns="http://www.w3.org/2000/svg" width="560" height="560" viewBox="0 0 560 560">
  <g id="noun-close-2939353" transform="translate(-70)">
    <path id="Path_1311" data-name="Path 1311" d="M237.81,346.94l67.879-65.992L237.81,213.069c-5.656-5.656-5.656-15.086,0-22.625l22.625-22.625c7.543-5.656,16.969-5.656,22.625,0L350.939,235.7l65.992-67.879c5.656-5.656,16.969-5.656,22.625,0l22.625,22.625c5.656,7.543,5.656,16.969,0,22.625l-65.992,67.879,65.992,65.992c5.656,5.656,5.656,16.969,0,22.625L439.556,392.19c-5.656,5.656-16.969,5.656-22.625,0L350.939,326.2,283.06,392.19c-5.656,5.656-15.086,5.656-22.625,0L237.81,369.565C232.154,363.909,232.154,352.6,237.81,346.94Z" fill="rgba(248,255,248,0.15)"/>
    <path id="Path_1312" data-name="Path 1312" d="M350.94,0C505.55,0,630,126.33,630,280.94A278.436,278.436,0,0,1,350.94,560C196.33,560,70,435.55,70,280.94S196.33,0,350.94,0Zm0,37.711c-133.87,0-243.23,109.36-243.23,243.23s109.36,241.35,243.23,241.35a240.616,240.616,0,0,0,241.35-241.35c0-133.87-107.48-243.23-241.35-243.23Z" fill="rgba(248,255,248,0.15)"/>
  </g>
</svg>
