<svg xmlns="http://www.w3.org/2000/svg" width="474.318" height="493.925" viewBox="0 0 474.318 493.925">
  <g id="noun-shirt-1527918" transform="translate(-113.121 -33.038)">
    <path id="Path_595" data-name="Path 595" d="M488.32,151.76a30.914,30.914,0,0,0-21.84-8.961H417.2c-25.2-10.078-49.281-19.039-59.359-22.961V90.717H350a21.281,21.281,0,1,1,21.281-21.281H386.4a36.4,36.4,0,1,0-43.675,35.84v14.559c-10.078,3.922-34.16,13.441-59.922,23.52h-49.84a30.916,30.916,0,0,0-21.84,8.961l-98,98,80.641,80.641,22.4-22.4v218.4H484.4v-218.4l22.4,22.4,80.641-80.641ZM350.56,133.28c8.4,3.359,35.281,14,63.84,24.641a32,32,0,0,0,.559-7.281c0,34.719-28,59.922-66.078,59.922-35.84,0-62.719-22.961-65.52-54.879a9.561,9.561,0,0,0,.559,3.922c29.121-11.766,57.684-22.965,66.641-26.324ZM468.72,271.6V511.84H231.28V272.16l-37.52,37.52L134.4,250.321l87.359-87.359a15.632,15.632,0,0,1,11.2-4.48h35.281c3.922,39.2,37.52,67.2,80.641,67.2s76.719-28.559,80.641-67.2h36.961a17.772,17.772,0,0,1,11.2,4.48l87.359,87.359-58.8,58.8Z"/>
  </g>
</svg>
