<svg xmlns="http://www.w3.org/2000/svg" width="336.68" height="380.953" viewBox="0 0 336.68 380.953">
  <g id="noun-cocktail-285075" transform="translate(-168.806 -103.563)">
    <path id="Path_335" data-name="Path 335" d="M503.14,105.12a6.352,6.352,0,0,0-9.09.789l-67.973,79.434h-131.6a63.347,63.347,0,1,0-62.441,74.69,62.313,62.313,0,0,0,33.988-9.879l73.113,85.363,0,136.35h-47.82a6.324,6.324,0,0,0,0,12.648h108.68a6.324,6.324,0,0,0,0-12.648h-47.82V336.317l119.35-139.9a6.056,6.056,0,0,0,.789-6.719,6.474,6.474,0,0,0-5.93-3.953H443.067l60.859-71.137a6.784,6.784,0,0,0-.785-9.48ZM268,232.77l-29.246-34.383h44.262A53,53,0,0,1,268,232.77Zm-35.57,14.621a50.586,50.586,0,1,1,49-62.442h-56.91a6.925,6.925,0,0,0-5.93,3.953,5.9,5.9,0,0,0,.789,6.719l37.938,44.656a44.7,44.7,0,0,1-24.891,7.113Zm63.234-49h119.35l-31.223,36.359a22.553,22.553,0,0,0-11.461-1.582,26.778,26.778,0,0,0-24.9,28.059H291.709L275.9,243.043a63.2,63.2,0,0,0,19.762-44.656Zm156.89,0-51.375,60.07v-.789a25.831,25.831,0,0,0-6.324-15.414L432.4,198.387Z"/>
  </g>
</svg>
