<svg xmlns="http://www.w3.org/2000/svg" width="523.869" height="560.001" viewBox="0 0 523.869 560.001">
  <g id="noun-alcoholic-drink-4185791" transform="translate(-88.063 -0.004)">
    <path id="Path_23" data-name="Path 23" d="M607.03,235.11a22.409,22.409,0,0,0-17.5-36.4H480.914a131.379,131.379,0,0,0-2.215-76.027l-8.887-26.652,18.523-6.18L482.617,72.72l-54.2,18.066,5.719,17.133,18.523-6.18,8.887,26.652a112.928,112.928,0,0,1,.5,70.316l-133.96,0a104.757,104.757,0,0,0-31.82-35.984l-45.633-31.949V90.326a18.085,18.085,0,0,0,18.066-18.066V54.2a18.085,18.085,0,0,0-18.066-18.066V18.069A18.085,18.085,0,0,0,232.575,0H196.446A18.085,18.085,0,0,0,178.38,18.069V36.135A18.076,18.076,0,0,0,160.321,54.2V72.263a18.085,18.085,0,0,0,18.066,18.066v40.457l-45.633,31.938a104.866,104.866,0,0,0-44.691,85.836c0,3.16.145,6.332.426,9.484l22.965,252.67A53.947,53.947,0,0,0,165.431,560H263.6a53.947,53.947,0,0,0,53.977-49.289l18.012-198.14,77.641,97.051V505.81H395.159a36.164,36.164,0,0,0-36.129,36.129A18.085,18.085,0,0,0,377.1,560h126.45a18.085,18.085,0,0,0,18.066-18.066,36.164,36.164,0,0,0-36.129-36.129H467.417l0-96.184ZM426.59,397.42,325.43,270.97h52.379a63.141,63.141,0,0,0,125.008,0H555.2L454.044,397.42Zm13.73-180.64a44.488,44.488,0,0,1,13.215,2.2,113.6,113.6,0,0,1-11.145,16.871l-1.426,1.781a52.8,52.8,0,0,1-12.328-9.176l-12.773,12.773a70.251,70.251,0,0,0,50.008,20.707h1.543V243.873h-1.543a54.272,54.272,0,0,1-6.641-.461,131.887,131.887,0,0,0,10.145-15.754,44.91,44.91,0,1,1-29.055-10.879Zm153.55,4.336a4.423,4.423,0,0,1-.949,2.719l-23.258,29.074h-66.84a63.016,63.016,0,0,0-18.344-36.129h105.05a4.338,4.338,0,0,1,4.344,4.336ZM377.82,252.909H310.98l-23.258-29.074a4.415,4.415,0,0,1-.949-2.719,4.336,4.336,0,0,1,4.336-4.336h105.05a63.032,63.032,0,0,0-18.336,36.129ZM274.49,415.489H154.54l-12.285-172.24a8.41,8.41,0,0,1,8.41-8.406h122.77c.063.09.117.191.18.27L286.244,250.9Zm-1.312,18.062a58.848,58.848,0,0,1-117.328,0ZM196.451,18.071H232.58V36.137H196.451ZM178.385,54.2h72.258l.008,18.066-72.266,0ZM232.58,90.329v36.129H196.451V90.329ZM190.264,144.52h48.5l38.711,27.1H151.549Zm109.31,364.56A35.951,35.951,0,0,1,263.6,541.939H165.433a35.951,35.951,0,0,1-35.977-32.859L106.491,256.42q-.369-3.92-.363-7.859a86.66,86.66,0,0,1,23.223-58.883H299.61a86.2,86.2,0,0,1,7.336,9.031l-15.836,0a22.434,22.434,0,0,0-21.965,18.066l-118.48,0a26.5,26.5,0,0,0-26.473,26.473c0,.641.02,1.273.063,1.887l13.52,189.21a76.933,76.933,0,0,0,153.476,0l11.625-162.67L319.3,292.2Zm203.98,32.859H377.094a18.085,18.085,0,0,1,18.066-18.066h90.324a18.1,18.1,0,0,1,18.07,18.066Zm-72.27-36.129V415.49H449.35v90.324Z"/>
    <path id="Path_24" data-name="Path 24" d="M187.42,352.26a27.1,27.1,0,1,0,27.1,27.1,27.131,27.131,0,0,0-27.1-27.1Zm0,36.129a9.031,9.031,0,1,1,9.031-9.031A9.046,9.046,0,0,1,187.42,388.389Z"/>
    <path id="Path_25" data-name="Path 25" d="M241.61,325.16a27.1,27.1,0,1,0,27.1,27.1,27.131,27.131,0,0,0-27.1-27.1Zm0,36.129a9.031,9.031,0,1,1,9.031-9.031A9.046,9.046,0,0,1,241.61,361.289Z"/>
    <path id="Path_26" data-name="Path 26" d="M160.32,252.9h36.129v18.066H160.32Z"/>
    <path id="Path_27" data-name="Path 27" d="M214.52,252.9h54.195v18.066h-54.2Z"/>
    <path id="Path_28" data-name="Path 28" d="M160.32,289.03H268.71V307.1H160.32Z"/>
  </g>
</svg>
