<svg xmlns="http://www.w3.org/2000/svg" width="569.18" height="559.998" viewBox="0 0 569.18 559.998">
  <g id="noun-coffee-mug-4197849" transform="translate(-65.42 0.003)">
    <path id="Path_381" data-name="Path 381" d="M414.46,266.04c-14.082-14.082-34.1-20.316-56.488-17.523-21.48,2.68-42.633,13.484-59.543,30.406s-27.723,38.062-30.406,59.543c-2.8,22.336,3.426,42.4,17.516,56.488,11.887,11.887,28.02,18.176,46.188,18.176a83.855,83.855,0,0,0,10.3-.652c21.48-2.68,42.633-13.484,59.543-30.406s27.723-38.062,30.406-59.543c2.8-22.336-3.418-42.4-17.516-56.488Zm-.7,54.211c-2.176,17.441-11.117,34.793-25.164,48.84s-31.4,22.988-48.84,25.172c-16.672,2.066-31.242-2.3-41.23-12.285s-14.359-24.641-12.285-41.23c2.176-17.441,11.117-34.793,25.164-48.84s31.4-22.988,48.84-25.172a64.48,64.48,0,0,1,7.934-.5c13.3,0,24.934,4.414,33.3,12.789,10,9.988,14.367,24.629,12.285,41.227Z"/>
    <path id="Path_382" data-name="Path 382" d="M307.32,351.05l64.285-55.07,11.945,13.945-64.285,55.07Z"/>
    <path id="Path_383" data-name="Path 383" d="M287.07,206.02a35.855,35.855,0,0,0,9.308,57.433L300,265.262l8.215-16.422-3.617-1.809a17.389,17.389,0,0,1-9.676-15.652A17.628,17.628,0,0,1,300.05,219l4.047-4.051a31.352,31.352,0,0,0,0-44.332l-5.379-5.379a12.986,12.986,0,0,1,0-18.359l2.691-2.691-12.98-12.98-2.691,2.68a31.352,31.352,0,0,0,0,44.332l5.379,5.379a12.986,12.986,0,0,1,0,18.359Z"/>
    <path id="Path_384" data-name="Path 384" d="M340.82,188.98a31.352,31.352,0,0,0,0,44.332L343.511,236l12.98-12.98-2.691-2.691a12.986,12.986,0,0,1,0-18.359l5.379-5.371a31.352,31.352,0,0,0,0-44.332l-2.129-2.129a24.071,24.071,0,0,1,0-34.043l8.621-8.621L352.691,94.5l-8.621,8.621a42.418,42.418,0,0,0,0,60l2.129,2.133a12.986,12.986,0,0,1,0,18.359Z"/>
    <path id="Path_385" data-name="Path 385" d="M402.57,212.43a8.6,8.6,0,0,1-2.25,13.777l-8.527,4.258,8.215,16.422,8.527-4.258a26.96,26.96,0,0,0,7.016-43.179l-6.664-6.668a12.986,12.986,0,0,1,0-18.359l2.691-2.691-12.98-12.98-2.691,2.684a31.352,31.352,0,0,0,0,44.332Z"/>
    <path id="Path_386" data-name="Path 386" d="M551.97,110.16H518.443l5.922-81.4c.035-.625.063-1.238.063-1.863A26.923,26.923,0,0,0,497.529,0H202.479a26.923,26.923,0,0,0-26.9,26.9c0,.625.027,1.25.074,1.957l30.613,420.98H83.779A18.378,18.378,0,0,0,65.42,468.191V486.55a18.378,18.378,0,0,0,18.359,18.359h126.5l.191,2.672A36.857,36.857,0,0,0,247.1,541.636h163.7a54.7,54.7,0,0,0,41.027,18.359h35.891a55.136,55.136,0,0,0,55.082-55.082,18.378,18.378,0,0,0-18.359-18.359H491.077l6-82.523,67.328-37.867A137.9,137.9,0,0,0,634.6,246.144V192.785a82.718,82.718,0,0,0-82.621-82.621Zm-37.531,55.082h28.348a36.761,36.761,0,0,1,36.723,36.723v39.07A82.9,82.9,0,0,1,538.522,312.4L502.194,333.59ZM202.479,18.352h295.05c4.711,0,8.539,3.828,8.52,9.152l-2,27.57H195.978L193.932,26.89a8.546,8.546,0,0,1,8.539-8.539Zm-118.7,449.84h238.69l.008,18.359-238.7,0Zm145,38.055-.1-1.332h93.789a18.378,18.378,0,0,0,18.359-18.359h28.883A18.247,18.247,0,0,1,386.13,496.7l13.285,26.574H247.1a18.434,18.434,0,0,1-18.316-17.027Zm258.93,35.391H451.814a36.506,36.506,0,0,1-32.84-20.3l-8.215-16.426h113.67a36.761,36.761,0,0,1-36.723,36.723Zm-86.2-55.082A36.5,36.5,0,0,0,369.7,468.2l-28.871,0a18.378,18.378,0,0,0-18.359-18.359H224.678L197.319,73.444h305.39l-30.047,413.11Zm214.73-240.41a119.5,119.5,0,0,1-60.84,104.02l-56.727,31.91,1.91-26.273,47.195-27.531a101.336,101.336,0,0,0,50.1-87.234v-39.07a55.136,55.136,0,0,0-55.082-55.082H515.77l1.34-18.359,34.863,0a64.34,64.34,0,0,1,64.262,64.262Z"/>
  </g>
</svg>
