<svg xmlns="http://www.w3.org/2000/svg" xmlns:xlink="http://www.w3.org/1999/xlink" width="368.687" height="240.842" viewBox="0 0 368.687 240.842"><defs><filter id="a" x="0" y="0" width="368.687" height="240.842" filterUnits="userSpaceOnUse"><feOffset dy="3" input="SourceAlpha"/><feGaussianBlur stdDeviation="3" result="b"/><feFlood flood-opacity="0.161"/><feComposite operator="in" in2="b"/><feComposite in="SourceGraphic"/></filter></defs><g transform="translate(9 5.821)"><g transform="matrix(1, 0, 0, 1, -9, -5.82)" filter="url(#a)"><path d="M349.91,21.026l.777,179.636a20.942,20.942,0,0,1-20.846,21.027L21.805,223.021A20.944,20.944,0,0,1,.778,202.175L0,22.538A20.944,20.944,0,0,1,20.846,1.511L328.882.18a20.653,20.653,0,0,1,11.26,3.238A20.854,20.854,0,0,1,349.91,21.026Z" transform="translate(9 5.82)" fill="#002600"/></g><path d="M265.289.819c-34.81,29.474-39.05,66.437-78.835,137.614-19.632,35.109-38.976,60.895-54.912,82.455H104.306c-8.926.042-17.108-3.4-20.155-11.257,5.369-5.4,10.524-10.9,15.19-16.223C166.46,116.8,143.9,65.754,206.16,5.751q2.508-2.429,5.038-4.7Z" fill="#fff"/><path d="M353.222,21.026l.2,46.422c-15.073,20.75-43.4,54.069-84.94,73.4-41.095,19.131-63.2,9.725-94.984,37.847-8.8,7.776-25.043,22.571-28.686,43.8l-28.548.128c12.144-18.833,21.933-40.478,46.2-68.834,45.751-53.441,71.188-46.826,100.96-98.712C265.875,50.809,281.31,23.5,285.912.393L332.2.19a20.652,20.652,0,0,1,11.259,3.238A20.819,20.819,0,0,1,353.222,21.026Z" fill="#00562f"/><path d="M291.792.382c-4.613,23.115-20.047,50.427-22.5,54.7-29.773,51.887-55.21,45.271-100.961,98.712-24.276,28.356-34.054,50-46.2,68.834l-63.55.277a783.176,783.176,0,0,0,55.093-84.471C153.464,67.256,157.693,30.3,192.515.819Z" fill="#00562f"/><path d="M353.755,144.11,354,200.651a20.945,20.945,0,0,1-20.846,21.028l-108.991.758c17.075-18.918,39.38-39.692,70.952-55.19C318.848,155.6,336.988,152.11,353.755,144.11Z" fill="#2fac66"/><path d="M353.425,67.447l.33,76.731c-16.767,8.007-34.007,12.323-57.74,23.976-31.562,15.512-53.128,35.1-70.2,54.034l-81.006.439c3.632-21.248,19.887-36.057,28.686-43.84,31.8-28.147,53.889-18.733,94.984-37.881C310.028,121.565,338.352,88.216,353.425,67.447Z" transform="translate(0)" fill="#2fac66"/><text transform="translate(29.67 185.179)" fill="rgba(248,255,248,0.65)" font-size="10" font-family="Nunito-Bold, Nunito" font-weight="700"><tspan x="0" y="0">Expiry Date</tspan></text><text transform="translate(29.67 48.643)" fill="rgba(248,255,248,0.65)" font-size="10" font-family="Nunito-Bold, Nunito" font-weight="700"><tspan x="0" y="0">Balance</tspan></text><g transform="translate(-0.207 4)"><circle cx="2.5" cy="2.5" r="2.5" transform="translate(29.878 147.579)" fill="rgba(255,255,255,0.45)"/><circle cx="2.5" cy="2.5" r="2.5" transform="translate(39.878 147.579)" fill="rgba(255,255,255,0.45)"/><circle cx="2.5" cy="2.5" r="2.5" transform="translate(49.878 147.579)" fill="rgba(255,255,255,0.45)"/><circle cx="2.5" cy="2.5" r="2.5" transform="translate(59.878 147.579)" fill="rgba(255,255,255,0.45)"/></g><g transform="translate(50.793 4)"><circle cx="2.5" cy="2.5" r="2.5" transform="translate(29.878 147.579)" fill="rgba(255,255,255,0.45)"/><circle cx="2.5" cy="2.5" r="2.5" transform="translate(39.878 147.579)" fill="rgba(255,255,255,0.45)"/><circle cx="2.5" cy="2.5" r="2.5" transform="translate(49.878 147.579)" fill="rgba(255,255,255,0.45)"/><circle cx="2.5" cy="2.5" r="2.5" transform="translate(59.878 147.579)" fill="rgba(255,255,255,0.45)"/></g><g transform="translate(101.793 4)"><circle cx="2.5" cy="2.5" r="2.5" transform="translate(29.878 147.579)" fill="rgba(255,255,255,0.45)"/><circle cx="2.5" cy="2.5" r="2.5" transform="translate(39.878 147.579)" fill="rgba(255,255,255,0.45)"/><circle cx="2.5" cy="2.5" r="2.5" transform="translate(49.878 147.579)" fill="rgba(255,255,255,0.45)"/><circle cx="2.5" cy="2.5" r="2.5" transform="translate(59.878 147.579)" fill="rgba(255,255,255,0.45)"/></g><text transform="translate(276.959 54.179)" fill="rgba(248,255,248,0.65)" font-size="20" font-family="LeagueSpartan-Bold, League Spartan" font-weight="700"><tspan x="0" y="0">DEBIT</tspan></text></g></svg>