<svg xmlns="http://www.w3.org/2000/svg" width="325.083" height="213.922" viewBox="0 0 325.083 213.922">
  <g id="noun-eye-3874082" transform="translate(-187.459 -173.038)">
    <path id="Path_1" data-name="Path 1" d="M380.8,280A30.8,30.8,0,1,1,350,249.2,30.8,30.8,0,0,1,380.8,280"/>
    <path id="Path_2" data-name="Path 2" d="M350,386.96A181.254,181.254,0,0,1,190.4,291.2a22.783,22.783,0,0,1,0-22.4,180.878,180.878,0,0,1,319.2,0,22.783,22.783,0,0,1,0,22.4A181.26,181.26,0,0,1,350,386.96Zm0-191.52c-58.8,0-112,31.922-140,84v1.121a158.63,158.63,0,0,0,140,84c58.8,0,112-31.922,140-84V279.44c-28-51.52-81.2-84-140-84Zm0,151.2A66.641,66.641,0,1,1,416.641,280,66.442,66.442,0,0,1,350,346.64Zm0-110.88A44.331,44.331,0,0,0,305.762,280c0,24.078,20.16,44.238,44.238,44.238s44.238-20.16,44.238-44.238A44.331,44.331,0,0,0,350,235.76Z"/>
  </g>
</svg>
