<svg xmlns="http://www.w3.org/2000/svg" width="33.514" height="26.259" viewBox="0 0 33.514 26.259"><g transform="translate(-71.417 -77.15)"><path d="M380.592,313.774v1.073c0,.365.025.736-.007,1.1.014-.1.025-.188.039-.283a.954.954,0,0,1-.06.223l.106-.255a1.309,1.309,0,0,1-.063.12c-.078.156.17-.2.053-.074s.23-.135.074-.053a1.28,1.28,0,0,1-.121.064l.255-.106a.991.991,0,0,1-.223.06c.1-.014.188-.025.283-.039-.407.035-.828.007-1.239.007h-10.6v2.124a2.068,2.068,0,0,0,1.738-.988,2.106,2.106,0,0,0,.283-1.111v-1.43a10.777,10.777,0,0,0-.548-4.067,7.388,7.388,0,0,0-1.688-2.584c-.071.556-.142,1.111-.216,1.667.067-.032.135-.06.2-.089l-.255.106a10.682,10.682,0,0,1,2.726-.712c-.1.014-.187.025-.283.039a16.437,16.437,0,0,1,4.255,0c-.1-.014-.187-.025-.283-.039a10.508,10.508,0,0,1,2.7.7l-.255-.106a7.143,7.143,0,0,1,1.069.559l.241.159c.046.032.283.213.113.082-.152-.117-.036-.025,0,0s.071.057.106.089c.071.06.138.12.2.184.12.113.237.233.347.357.06.067.117.142.174.209-.251-.3-.032-.039.025.042a5.459,5.459,0,0,1,.513.938l-.106-.255a6.224,6.224,0,0,1,.414,1.554c-.014-.1-.025-.188-.039-.283a7.454,7.454,0,0,1,.071,1.009,1.062,1.062,0,0,0,2.124,0,7.5,7.5,0,0,0-.835-3.543,6.6,6.6,0,0,0-2.265-2.379,9.487,9.487,0,0,0-3.38-1.264,16.943,16.943,0,0,0-4.145-.241,12.589,12.589,0,0,0-4.506,1.048,1,1,0,0,0-.506.775,1.035,1.035,0,0,0,.294.892,5.815,5.815,0,0,1,.407.435l.106.128c.113.135-.159-.216-.05-.064.057.078.113.156.166.234a6.154,6.154,0,0,1,.581,1.072l-.106-.255a7.128,7.128,0,0,1,.471,1.788c-.014-.1-.025-.188-.039-.283a16.457,16.457,0,0,1,.075,2.092v1.041a5.139,5.139,0,0,1-.011.616c.014-.1.025-.188.039-.283a1.293,1.293,0,0,1-.064.227l.106-.255a.975.975,0,0,1-.089.163c-.007,0,.213-.237.05-.074-.1.1-.113.025.074-.05-.057.021-.106.064-.163.089l.255-.106a1.283,1.283,0,0,1-.227.064c.1-.014.188-.025.283-.039a.972.972,0,0,1-.145.011,1.062,1.062,0,1,0,0,2.124h9.642c.694,0,1.391.007,2.085,0a1.919,1.919,0,0,0,1.356-.552,2,2,0,0,0,.552-1.462v-1.947a1.067,1.067,0,0,0-2.134,0Z" transform="translate(-277.795 -214.329)" fill="#89e798"/><path d="M383.5,134.175a4.816,4.816,0,0,1-.042.637c.014-.1.025-.187.039-.283a4.709,4.709,0,0,1-.315,1.14l.106-.255a4.693,4.693,0,0,1-.407.758c-.039.057-.078.113-.12.17-.1.135.145-.181.067-.085-.021.025-.039.05-.057.071-.092.113-.191.219-.294.326s-.2.191-.308.28c-.025.021-.05.039-.071.057-.138.117.181-.127.089-.067-.057.039-.113.081-.17.12a4.683,4.683,0,0,1-.775.421l.255-.106a4.741,4.741,0,0,1-1.14.315c.1-.014.188-.025.283-.039a4.773,4.773,0,0,1-1.271,0c.1.014.188.025.283.039a4.688,4.688,0,0,1-1.14-.315l.254.106a4.75,4.75,0,0,1-.757-.407c-.057-.039-.113-.078-.17-.12-.135-.1.181.145.085.067-.025-.021-.05-.039-.071-.057-.113-.092-.219-.191-.325-.294s-.191-.2-.28-.308c-.021-.025-.039-.049-.057-.071-.116-.138.128.181.067.089-.039-.057-.081-.113-.12-.17a4.7,4.7,0,0,1-.421-.775l.106.255a4.735,4.735,0,0,1-.315-1.14c.014.1.025.188.039.283a4.773,4.773,0,0,1,0-1.271c-.014.1-.025.188-.039.283a4.691,4.691,0,0,1,.315-1.14l-.106.255a4.741,4.741,0,0,1,.407-.757c.039-.057.078-.113.12-.17.1-.135-.145.181-.067.085.021-.025.039-.05.057-.071.092-.113.191-.22.294-.326s.2-.191.308-.28c.025-.021.05-.039.071-.057.138-.117-.18.127-.089.067.057-.039.113-.081.17-.12a4.684,4.684,0,0,1,.775-.421l-.255.106a4.74,4.74,0,0,1,1.14-.315c-.1.014-.187.025-.283.039a4.773,4.773,0,0,1,1.271,0c-.1-.014-.187-.025-.283-.039a4.7,4.7,0,0,1,1.14.315l-.255-.106a4.73,4.73,0,0,1,.757.407c.057.039.113.078.17.12.135.1-.181-.145-.085-.067.025.021.05.039.071.057.113.092.219.191.326.294s.191.2.28.308c.021.025.039.05.057.071.117.138-.128-.181-.067-.089.039.057.081.113.12.17a4.7,4.7,0,0,1,.421.775l-.106-.255a4.755,4.755,0,0,1,.315,1.14c-.014-.1-.025-.187-.039-.283a4.721,4.721,0,0,1,.042.634,1.062,1.062,0,0,0,2.124,0,5.57,5.57,0,0,0-1.006-3.2,5.856,5.856,0,0,0-2.761-2.106,5.638,5.638,0,0,0-6.152,1.671,5.822,5.822,0,0,0-1.324,3.267,5.6,5.6,0,0,0,3.214,5.455,5.841,5.841,0,0,0,3.579.414,5.627,5.627,0,0,0,4.361-4.535,6.328,6.328,0,0,0,.089-.966,1.075,1.075,0,0,0-1.062-1.062,1.089,1.089,0,0,0-1.062,1.066Z" transform="translate(-284.619 -48.069)" fill="#89e798"/><path d="M110.99,290.944v1.264a10.717,10.717,0,0,1-.011,1.306c.014-.1.025-.187.039-.283a1.26,1.26,0,0,1-.064.227l.106-.255a.987.987,0,0,1-.089.163c-.007,0,.212-.237.05-.074-.1.1-.113.025.074-.05-.057.021-.106.064-.163.089l.255-.106a1.247,1.247,0,0,1-.227.063l.283-.039a4.857,4.857,0,0,1-.6.01H95.4c-.708,0-1.42.011-2.131,0a1.358,1.358,0,0,1-.166-.01l.283.039a1.246,1.246,0,0,1-.227-.063l.255.106a.978.978,0,0,1-.163-.089c0-.007.237.212.074.05-.1-.1-.028-.113.05.074-.021-.057-.064-.106-.088-.163l.106.255a1.26,1.26,0,0,1-.064-.227c.014.1.025.188.039.283a10.268,10.268,0,0,1-.011-1.235v-1.324a9.115,9.115,0,0,1,.078-1.2c-.014.1-.025.188-.039.283a7.361,7.361,0,0,1,.471-1.777l-.106.255a6.207,6.207,0,0,1,.467-.9c.085-.138.181-.269.276-.4s-.181.227-.06.078c.025-.028.05-.06.074-.089.053-.063.11-.127.163-.191a6.172,6.172,0,0,1,.715-.676l.092-.074c.053-.042-.234.177-.092.071l.205-.148c.142-.1.287-.191.432-.28a9.167,9.167,0,0,1,1.055-.531l-.255.106a12.439,12.439,0,0,1,3.111-.811c-.1.014-.188.025-.283.039a19.014,19.014,0,0,1,5.012,0c-.1-.014-.188-.025-.283-.039a12.331,12.331,0,0,1,3.14.821l-.255-.106a8.791,8.791,0,0,1,1.147.588c.1.064.2.128.3.2.053.035.1.071.156.11a.565.565,0,0,1,.05.039q.133.1-.064-.053c.166.174.379.315.552.485.135.135.266.272.389.418.032.035.06.074.092.11.12.149-.163-.219-.05-.064.057.078.113.156.166.234a6.155,6.155,0,0,1,.581,1.073l-.106-.255a7.134,7.134,0,0,1,.471,1.788c-.014-.1-.025-.187-.039-.283.042.393.064.786.067,1.179a1.062,1.062,0,0,0,2.124,0,8.234,8.234,0,0,0-1.218-4.5,7.964,7.964,0,0,0-3.55-2.906,14.754,14.754,0,0,0-4.966-1.09,20.376,20.376,0,0,0-4.329.209,9.648,9.648,0,0,0-6.134,3.136,7.442,7.442,0,0,0-1.533,3.355,16.167,16.167,0,0,0-.163,2.8v1.228c0,.11,0,.216.011.322a2.072,2.072,0,0,0,.9,1.547,2.446,2.446,0,0,0,1.472.336h17.462a2.075,2.075,0,0,0,1.713-.914,2.435,2.435,0,0,0,.336-1.455v-2.078a1.062,1.062,0,0,0-2.124,0Z" transform="translate(-19.803 -191.981)" fill="#89e798"/><path d="M172.327,83.533a5.642,5.642,0,0,1-.049.733c.014-.1.025-.188.039-.283a5.443,5.443,0,0,1-.365,1.327l.106-.255a5.358,5.358,0,0,1-.485.9c-.042.064-.089.127-.135.188s-.17.195.053-.067c-.025.028-.049.06-.074.089a4.874,4.874,0,0,1-.343.375c-.113.113-.234.223-.357.326a.793.793,0,0,1-.106.088c.014,0,.237-.177.085-.067-.067.05-.138.1-.209.145a5.371,5.371,0,0,1-.9.485l.255-.106a5.551,5.551,0,0,1-1.327.365c.1-.014.188-.025.283-.039a5.669,5.669,0,0,1-1.469,0c.1.014.188.025.283.039a5.437,5.437,0,0,1-1.328-.365l.255.106a5.37,5.37,0,0,1-.9-.485c-.064-.042-.127-.088-.188-.135s-.195-.17.067.053c-.028-.025-.06-.05-.089-.074a4.874,4.874,0,0,1-.375-.343c-.113-.113-.223-.234-.326-.358a.772.772,0,0,1-.089-.106c0,.014.177.237.067.085-.049-.067-.1-.138-.145-.209a5.355,5.355,0,0,1-.485-.9l.106.255a5.561,5.561,0,0,1-.365-1.327c.014.1.025.188.039.283a5.657,5.657,0,0,1,0-1.469c-.014.1-.025.188-.039.283a5.437,5.437,0,0,1,.365-1.327l-.106.255a5.359,5.359,0,0,1,.485-.9c.042-.064.088-.127.135-.188s.17-.195-.053.067c.025-.028.049-.06.074-.089a4.949,4.949,0,0,1,.343-.375c.113-.113.234-.223.358-.326a.777.777,0,0,1,.106-.088c-.014,0-.237.177-.085.067.067-.05.138-.1.209-.145a5.366,5.366,0,0,1,.9-.485l-.255.106a5.549,5.549,0,0,1,1.327-.365c-.1.014-.187.025-.283.039a5.668,5.668,0,0,1,1.469,0c-.1-.014-.188-.025-.283-.039a5.432,5.432,0,0,1,1.328.365l-.255-.106a5.37,5.37,0,0,1,.9.485c.064.042.127.088.188.135s.195.17-.067-.053l.088.074a4.923,4.923,0,0,1,.375.343c.113.113.223.234.325.358a.774.774,0,0,1,.089.106c0-.014-.177-.237-.067-.085.049.067.1.138.145.209a5.355,5.355,0,0,1,.485.9l-.106-.255a5.556,5.556,0,0,1,.365,1.327c-.014-.1-.025-.188-.039-.283a5.782,5.782,0,0,1,.049.736,1.062,1.062,0,1,0,2.124,0,6.347,6.347,0,0,0-1.136-3.628,6.606,6.606,0,0,0-3.122-2.389,6.4,6.4,0,0,0-6.995,1.9,6.567,6.567,0,0,0-1.494,3.678,6.366,6.366,0,0,0,3.642,6.212,6.587,6.587,0,0,0,4.049.474,6.389,6.389,0,0,0,4.959-5.154,7.47,7.47,0,0,0,.1-1.087,1.064,1.064,0,0,0-2.127,0Z" transform="translate(-85.706 0)" fill="#89e798"/></g></svg>