<svg xmlns="http://www.w3.org/2000/svg" width="19.91" height="20" viewBox="0 0 19.91 20"><g transform="translate(-71.955 -31.067)" opacity="1"><path d="M227.947,260.767h-12.2c-.56,0-1.123-.009-1.686,0h-.024a.769.769,0,1,0,0,1.538h12.2c.56,0,1.123.009,1.686,0h.024a.769.769,0,1,0,0-1.538Z" transform="translate(-136.852 -220.466)" fill="#89e798"/><path d="M487.541,194.993l.991-.991,1.589-1.589.363-.363a.78.78,0,0,0,0-1.088l-2.943-2.943a.769.769,0,0,0-1.088,1.088l.991.991,1.589,1.589.363.363v-1.088l-.991.991-1.589,1.589-.363.363a.769.769,0,0,0,1.088,1.088Z" transform="translate(-398.847 -150.433)" fill="#89e798"/><path d="M114.748,46.553v2.756a3.6,3.6,0,0,1-.007.435c.009-.068.018-.136.029-.2a.61.61,0,0,1-.048.167c.026-.062.053-.123.077-.185a.689.689,0,0,1-.088.145c.04-.053.079-.1.121-.156a.733.733,0,0,1-.1.1c.053-.04.1-.079.156-.121a.823.823,0,0,1-.145.088c.062-.026.123-.053.185-.077a.9.9,0,0,1-.167.048c.068-.009.136-.018.2-.029a3.45,3.45,0,0,1-.369.007H105.04c-.446,0-.894,0-1.34,0a.815.815,0,0,1-.1-.007c.068.009.136.018.2.029a.61.61,0,0,1-.167-.048c.062.026.123.053.185.077a.69.69,0,0,1-.145-.088c.053.04.1.079.156.121a.732.732,0,0,1-.1-.1c.04.053.079.1.121.156a.823.823,0,0,1-.088-.145c.026.062.053.123.077.185a.9.9,0,0,1-.048-.167c.009.068.018.136.029.2a4.733,4.733,0,0,1-.007-.53V33.161c0-.218,0-.435,0-.653a1.026,1.026,0,0,1,.007-.114c-.009.068-.018.136-.029.2a.61.61,0,0,1,.048-.167c-.026.062-.053.123-.077.185a.69.69,0,0,1,.088-.145c-.04.053-.079.1-.121.156a.732.732,0,0,1,.1-.1c-.053.04-.1.079-.156.121a.823.823,0,0,1,.145-.088c-.062.026-.123.053-.185.077a.9.9,0,0,1,.167-.048c-.068.009-.136.018-.2.029a3.449,3.449,0,0,1,.369-.007h9.555c.446,0,.894,0,1.34,0a.814.814,0,0,1,.1.007c-.068-.009-.136-.018-.2-.029a.61.61,0,0,1,.167.048c-.062-.026-.123-.053-.185-.077a.69.69,0,0,1,.145.088c-.053-.04-.1-.079-.156-.121a.733.733,0,0,1,.1.1c-.04-.053-.079-.1-.121-.156a.823.823,0,0,1,.088.145c-.026-.062-.053-.123-.077-.185a.9.9,0,0,1,.048.167c-.009-.068-.018-.136-.029-.2a3.41,3.41,0,0,1,.007.367v2.824a.769.769,0,1,0,1.538,0V32.509a1.436,1.436,0,0,0-.743-1.27,1.9,1.9,0,0,0-.923-.171H103.693a1.463,1.463,0,0,0-1.228.7,1.642,1.642,0,0,0-.2.879V49.632a1.434,1.434,0,0,0,.308.89,1.417,1.417,0,0,0,1.123.545h10.944a1.679,1.679,0,0,0,.976-.213,1.461,1.461,0,0,0,.668-1.242V46.551a.768.768,0,1,0-1.536,0Z" transform="translate(-30.312 0)" fill="#89e798"/></g></svg>