<svg xmlns="http://www.w3.org/2000/svg" width="560.004" height="560.005" viewBox="0 0 560.004 560.005">
  <g id="noun-vaccine-4257498" transform="translate(-69.993 0)">
    <path id="Path_713" data-name="Path 713" d="M575.8,130.07V90.328a18.085,18.085,0,0,0,18.066-18.066V18.071A18.085,18.085,0,0,0,575.8,0H377.09a18.085,18.085,0,0,0-18.066,18.066V72.266A18.085,18.085,0,0,0,377.09,90.332v39.742a106.421,106.421,0,0,0-54.2,93.105v138.11H196.445a18.085,18.085,0,0,0-18.066,18.066v18.066H160.313a18.085,18.085,0,0,0-18.066,18.066v9.031l-72.254,0V442.58h72.258v9.031a18.085,18.085,0,0,0,18.066,18.066h18.066v18.066a18.085,18.085,0,0,0,18.066,18.066H322.9v18.066A36.164,36.164,0,0,0,359.028,560h234.84A36.164,36.164,0,0,0,630,523.876l-.008-300.71a106.429,106.429,0,0,0-54.2-93.1ZM160.32,451.62V415.491h18.066V451.62Zm36.129-72.258h18.066v108.39H196.449Zm36.129,108.39V379.362h18.066v36.129H268.71V379.362h18.066v54.2h18.066v-54.2h18.066v108.39ZM377.1,18.072h198.71l.008,54.195-198.72,0ZM557.738,90.33v36.129H395.158V90.33Zm54.191,433.55a18.085,18.085,0,0,1-18.066,18.066l-234.84,0a18.085,18.085,0,0,1-18.066-18.066l0-300.7a88.431,88.431,0,0,1,47.582-78.652h175.79a88.423,88.423,0,0,1,47.59,78.652Z"/>
    <path id="Path_714" data-name="Path 714" d="M377.1,198.71a18.085,18.085,0,0,0-18.066,18.066v270.97A18.085,18.085,0,0,0,377.1,505.812H575.81a18.085,18.085,0,0,0,18.066-18.066l0-270.97a18.085,18.085,0,0,0-18.066-18.066Zm198.71,18.062.008,180.64H377.108V216.772Zm-36.129,270.97V451.613H521.615v36.129H503.549V451.613H485.483v36.129H467.417V451.613H449.351v36.129H431.285V451.613H413.219v36.129H377.09V415.484H575.81v72.258Z"/>
    <path id="Path_715" data-name="Path 715" d="M413.23,289.03H539.68a18.085,18.085,0,0,0,18.066-18.066V252.9a18.085,18.085,0,0,0-18.066-18.066l-126.45.008a18.085,18.085,0,0,0-18.066,18.066v18.066a18.082,18.082,0,0,0,18.066,18.059Zm54.191-18.062H449.355V252.9h18.066ZM485.487,252.9h18.066v18.066H485.487Zm54.2,18.066H521.616V252.9h18.066ZM413.23,252.9H431.3v18.066H413.23Z"/>
    <path id="Path_716" data-name="Path 716" d="M413.23,307.1h36.129v18.066H413.23Z"/>
    <path id="Path_717" data-name="Path 717" d="M467.42,307.1h72.258v18.066H467.42Z"/>
    <path id="Path_718" data-name="Path 718" d="M413.23,343.23H539.68V361.3H413.23Z"/>
    <path id="Path_719" data-name="Path 719" d="M160.32,307.1h18.066v18.066H160.32Z"/>
    <path id="Path_720" data-name="Path 720" d="M196.45,307.1h18.066v18.066H196.45Z"/>
    <path id="Path_721" data-name="Path 721" d="M232.58,307.1h18.066v18.066H232.58Z"/>
    <path id="Path_722" data-name="Path 722" d="M142.26,144.52h18.066v18.066a18.085,18.085,0,0,0,18.066,18.066h36.129a18.085,18.085,0,0,0,18.066-18.066V144.52h18.066a18.085,18.085,0,0,0,18.066-18.066V90.325a18.085,18.085,0,0,0-18.066-18.066H232.587l0-18.059a18.085,18.085,0,0,0-18.066-18.066H178.388A18.085,18.085,0,0,0,160.322,54.2V72.266l-18.062,0a18.085,18.085,0,0,0-18.066,18.066v36.129a18.087,18.087,0,0,0,18.066,18.062Zm0-54.191h36.129V54.2h36.129V90.329h36.129v36.129H214.518v36.129H178.389V126.458H142.26Z"/>
    <path id="Path_723" data-name="Path 723" d="M115.16,216.77h55.574l6.285,37.746a19.7,19.7,0,0,0,38.864-.008l6.285-37.738h55.574a45.21,45.21,0,0,0,45.16-45.16V45.16A45.21,45.21,0,0,0,277.742,0H115.162A45.21,45.21,0,0,0,70,45.16V171.61a45.21,45.21,0,0,0,45.16,45.16ZM88.066,45.16a27.131,27.131,0,0,1,27.1-27.1h162.58a27.131,27.131,0,0,1,27.1,27.1V171.61a27.131,27.131,0,0,1-27.1,27.1H206.869l-8.8,52.828c-.262,1.59-2.953,1.582-3.215.008l-8.812-52.836H115.158a27.131,27.131,0,0,1-27.1-27.1Z"/>
  </g>
</svg>
