<svg xmlns="http://www.w3.org/2000/svg" width="30.958" height="32" viewBox="0 0 30.958 32"><g transform="translate(-102.743 -24.48)"><path d="M168.2,37.277V49.028c0,.544-.01,1.085,0,1.63v.024l1.541-1.541H150c-.907,0-1.818-.014-2.729,0h-.038l1.541,1.541V38.39c0-.64-.017-1.284.027-1.924.017-.236.041-.473.072-.705-.017.137-.038.274-.055.411a11.325,11.325,0,0,1,.774-2.838c-.051.123-.1.247-.154.366a11.421,11.421,0,0,1,1.472-2.523l-.24.312a11.51,11.51,0,0,1,2.02-2.02l-.312.24a11.422,11.422,0,0,1,2.523-1.472l-.366.154a11.362,11.362,0,0,1,2.838-.774c-.137.017-.274.038-.411.055a11.537,11.537,0,0,1,3.034,0c-.137-.017-.274-.038-.411-.055a11.479,11.479,0,0,1,2.835.77l-.366-.154a11.335,11.335,0,0,1,1.291.644c-.1-.808-.209-1.613-.312-2.421a7.227,7.227,0,0,0-.558.76,6.307,6.307,0,0,0-.435.907,5.61,5.61,0,0,0,.181,4.468,5.094,5.094,0,0,0,1.476,1.887,5.672,5.672,0,0,0,2.445,1.192,5.6,5.6,0,0,0,1.705.089,5.989,5.989,0,0,0,1.1-.209,6.82,6.82,0,0,0,1.01-.418c-.753-.308-1.51-.613-2.263-.921a11.548,11.548,0,0,1,.445,1.948c-.017-.137-.038-.274-.055-.411a10.848,10.848,0,0,1,.113,1.531,1.543,1.543,0,0,0,1.541,1.541,1.545,1.545,0,0,0,1.089-.452,1.6,1.6,0,0,0,.452-1.089,12.848,12.848,0,0,0-.606-3.9,1.561,1.561,0,0,0-2.263-.921c-.086.045-.171.086-.26.123l.366-.154a4.289,4.289,0,0,1-1.072.294c.137-.017.274-.038.411-.055a4.482,4.482,0,0,1-1.113,0c.137.017.274.038.411.055a4.217,4.217,0,0,1-1.02-.281l.366.154a4.306,4.306,0,0,1-.931-.544l.312.24a4.282,4.282,0,0,1-.726-.726l.24.312a4.306,4.306,0,0,1-.544-.931c.051.123.1.247.154.366a4.216,4.216,0,0,1-.281-1.02c.017.137.038.274.055.411a4.314,4.314,0,0,1,0-1.15c-.017.137-.038.274-.055.411a4.091,4.091,0,0,1,.288-1.027c-.051.123-.1.247-.154.366a4.309,4.309,0,0,1,.527-.9l-.24.312c.024-.027.045-.058.068-.086a1.541,1.541,0,0,0,.4-.681,1.168,1.168,0,0,0,.027-.613A1.5,1.5,0,0,0,164.9,26.2a12.888,12.888,0,0,0-6.588-1.722,13.049,13.049,0,0,0-5.424,1.287,11.4,11.4,0,0,0-2.03,1.243,12.76,12.76,0,0,0-4.633,6.588,13.229,13.229,0,0,0-.534,3.8V50.675a1.563,1.563,0,0,0,1.541,1.541h19.739c.907,0,1.818.01,2.729,0h.038a1.563,1.563,0,0,0,1.541-1.541V38.924c0-.544.007-1.085,0-1.63V37.27a1.543,1.543,0,0,0-1.541-1.541,1.545,1.545,0,0,0-1.089.452,1.626,1.626,0,0,0-.452,1.1Z" transform="translate(-40.261)" fill="#f8fff8"/><path d="M265.878,419.84a4.481,4.481,0,0,1-.038.568c.017-.137.038-.274.055-.411a4.417,4.417,0,0,1-.288,1.065c.051-.123.1-.247.154-.366a4.529,4.529,0,0,1-.565.972l.24-.312a4.4,4.4,0,0,1-.757.757l.312-.24a4.371,4.371,0,0,1-.972.565l.366-.154a4.416,4.416,0,0,1-1.065.288c.137-.017.274-.038.411-.055a4.537,4.537,0,0,1-1.14,0c.137.017.274.038.411.055a4.416,4.416,0,0,1-1.065-.288l.366.154a4.53,4.53,0,0,1-.972-.565l.312.24a4.4,4.4,0,0,1-.757-.757l.24.312a4.371,4.371,0,0,1-.565-.972c.051.123.1.247.154.366a4.416,4.416,0,0,1-.288-1.065c.017.137.038.274.055.411a4.529,4.529,0,0,1-.038-.568l-1.541,1.541h8.512a1.543,1.543,0,0,0,1.541-1.541,1.545,1.545,0,0,0-.452-1.089,1.6,1.6,0,0,0-1.089-.452H258.9a1.563,1.563,0,0,0-1.541,1.541,5.728,5.728,0,0,0,1.007,3.26,5.386,5.386,0,0,0,1.4,1.438,5.76,5.76,0,0,0,1.486.781,5.669,5.669,0,0,0,1.705.318,5.585,5.585,0,0,0,1.763-.212,5.709,5.709,0,0,0,2.8-1.78,6.431,6.431,0,0,0,1.106-1.9,5.591,5.591,0,0,0,.322-1.9,1.543,1.543,0,0,0-1.541-1.541,1.56,1.56,0,0,0-1.537,1.537Z" transform="translate(-144.938 -369.163)" fill="#f8fff8"/><path d="M132.16,418.277H105.422c-.363,0-.726,0-1.089,0h-.048a1.543,1.543,0,0,0-1.541,1.541,1.545,1.545,0,0,0,.452,1.089,1.6,1.6,0,0,0,1.089.452h26.738c.363,0,.726,0,1.089,0h.048a1.543,1.543,0,0,0,1.541-1.541,1.545,1.545,0,0,0-.452-1.089A1.59,1.59,0,0,0,132.16,418.277Z" transform="translate(0 -369.14)" fill="#f8fff8"/><path d="M408.973,30.254a4.487,4.487,0,0,1-.038.568c.017-.137.038-.274.055-.411a4.317,4.317,0,0,1-.277,1.014c.051-.123.1-.247.154-.366a4.293,4.293,0,0,1-.541.931l.24-.312a4.376,4.376,0,0,1-.757.753l.312-.24a4.443,4.443,0,0,1-.88.514l.366-.154a4.289,4.289,0,0,1-1.072.294c.137-.017.274-.038.411-.055a4.482,4.482,0,0,1-1.113,0c.137.017.274.038.411.055a4.217,4.217,0,0,1-1.02-.281l.366.154a4.306,4.306,0,0,1-.931-.544l.312.24a4.281,4.281,0,0,1-.726-.726l.24.312a4.306,4.306,0,0,1-.544-.931c.051.123.1.247.154.366a4.216,4.216,0,0,1-.281-1.02c.017.137.038.274.055.411a4.314,4.314,0,0,1,0-1.15c-.017.137-.038.274-.055.411a4.091,4.091,0,0,1,.288-1.027c-.051.123-.1.247-.154.366a4.31,4.31,0,0,1,.527-.9l-.24.312a4.338,4.338,0,0,1,.764-.76l-.312.24a4.413,4.413,0,0,1,.887-.517l-.366.154a4.247,4.247,0,0,1,1.061-.291c-.137.017-.274.038-.411.055a4.3,4.3,0,0,1,1.109,0c-.137-.017-.274-.038-.411-.055a4.216,4.216,0,0,1,1.02.281l-.366-.154a4.306,4.306,0,0,1,.931.544l-.312-.24a4.284,4.284,0,0,1,.726.726l-.24-.312a4.305,4.305,0,0,1,.544.931c-.051-.123-.1-.247-.154-.366a4.216,4.216,0,0,1,.281,1.02c-.017-.137-.038-.274-.055-.411a4.543,4.543,0,0,1,.041.572,1.6,1.6,0,0,0,.452,1.089,1.566,1.566,0,0,0,1.089.452,1.545,1.545,0,0,0,1.089-.452,1.588,1.588,0,0,0,.452-1.089,5.655,5.655,0,0,0-.877-3.023,5.592,5.592,0,0,0-2.3-2.051,5.472,5.472,0,0,0-1.493-.479,6.63,6.63,0,0,0-1.007-.092,7.157,7.157,0,0,0-1.082.113,5.486,5.486,0,0,0-2.982,1.64,5.779,5.779,0,0,0-1.551,3.633,5.589,5.589,0,0,0,.764,3.116,5.671,5.671,0,0,0,8.9,1.116,5.511,5.511,0,0,0,1.524-2.914,7.24,7.24,0,0,0,.106-1.055,1.543,1.543,0,0,0-1.541-1.541,1.558,1.558,0,0,0-1.541,1.537Z" transform="translate(-279.351 -0.12)" fill="#002600"/></g></svg>