<svg xmlns="http://www.w3.org/2000/svg" width="30.967" height="32" viewBox="0 0 30.967 32"><g transform="translate(-102.743 -24.628)"><path d="M168.156,37.419V49.173c0,.545-.01,1.086,0,1.63v.024l1.541-1.541H149.952c-.908,0-1.819-.014-2.73,0h-.038l1.541,1.541v-12.3c0-.64-.017-1.284.027-1.925.017-.236.041-.473.072-.706-.017.137-.038.274-.055.411a11.329,11.329,0,0,1,.774-2.839c-.051.123-.1.247-.154.366a11.423,11.423,0,0,1,1.473-2.524l-.24.312a11.514,11.514,0,0,1,2.021-2.021l-.312.24a11.425,11.425,0,0,1,2.524-1.473l-.366.154a11.366,11.366,0,0,1,2.839-.774c-.137.017-.274.038-.411.055a11.566,11.566,0,0,1,3.038,0c-.137-.017-.274-.038-.411-.055a11.369,11.369,0,0,1,2.839.774l-.366-.154a11.382,11.382,0,0,1,2.528,1.476l-.312-.24a11.517,11.517,0,0,1,2.021,2.021l-.24-.312a11.4,11.4,0,0,1,1.476,2.528c-.051-.123-.1-.247-.154-.366a11.473,11.473,0,0,1,.774,2.839c-.017-.137-.038-.274-.055-.411a13.008,13.008,0,0,1,.1,1.51A1.544,1.544,0,0,0,169.7,38.96a1.546,1.546,0,0,0,1.089-.452,1.6,1.6,0,0,0,.452-1.089,12.758,12.758,0,0,0-4.781-9.963,13.433,13.433,0,0,0-1.682-1.158,13.818,13.818,0,0,0-1.87-.867,12.807,12.807,0,0,0-16.556,7.792,13.16,13.16,0,0,0-.709,4.415V50.821a1.564,1.564,0,0,0,1.541,1.541h19.745c.908,0,1.819.01,2.73,0h.038a1.564,1.564,0,0,0,1.541-1.541V39.066c0-.545.007-1.086,0-1.63v-.024a1.544,1.544,0,0,0-1.541-1.541,1.546,1.546,0,0,0-1.089.452,1.64,1.64,0,0,0-.449,1.1Z" transform="translate(-40.21)" fill="#f8fff8"/><path d="M265.88,419.841a4.489,4.489,0,0,1-.038.569c.017-.137.038-.274.055-.411a4.417,4.417,0,0,1-.288,1.065c.051-.123.1-.247.154-.366a4.53,4.53,0,0,1-.565.973l.24-.312a4.4,4.4,0,0,1-.757.757l.312-.24a4.373,4.373,0,0,1-.973.565l.366-.154a4.417,4.417,0,0,1-1.065.288c.137-.017.274-.038.411-.055a4.537,4.537,0,0,1-1.141,0c.137.017.274.038.411.055a4.418,4.418,0,0,1-1.065-.288l.366.154a4.532,4.532,0,0,1-.973-.565l.312.24a4.4,4.4,0,0,1-.757-.757l.24.312a4.372,4.372,0,0,1-.565-.973c.051.123.1.247.154.366a4.417,4.417,0,0,1-.288-1.065c.017.137.038.274.055.411a4.526,4.526,0,0,1-.038-.569l-1.541,1.541h8.514a1.544,1.544,0,0,0,1.541-1.541,1.546,1.546,0,0,0-.452-1.089,1.6,1.6,0,0,0-1.089-.452H258.9a1.564,1.564,0,0,0-1.541,1.541,5.729,5.729,0,0,0,1.007,3.261,5.388,5.388,0,0,0,1.4,1.439,5.762,5.762,0,0,0,1.486.781,5.671,5.671,0,0,0,1.706.319,5.588,5.588,0,0,0,1.764-.212,5.711,5.711,0,0,0,2.8-1.781,6.433,6.433,0,0,0,1.106-1.9,5.592,5.592,0,0,0,.322-1.9,1.544,1.544,0,0,0-1.541-1.541,1.56,1.56,0,0,0-1.538,1.538Z" transform="translate(-144.936 -369.017)" fill="#f8fff8"/><path d="M132.168,418.277H105.423c-.363,0-.726,0-1.089,0h-.048a1.544,1.544,0,0,0-1.541,1.541,1.546,1.546,0,0,0,.452,1.089,1.6,1.6,0,0,0,1.089.452h26.746c.363,0,.726,0,1.089,0h.048a1.544,1.544,0,0,0,1.541-1.541,1.546,1.546,0,0,0-.452-1.089A1.591,1.591,0,0,0,132.168,418.277Z" transform="translate(0 -368.995)" fill="#f8fff8"/></g></svg>