<?xml version="1.0" encoding="UTF-8"?>
<svg width="700pt" height="700pt" version="1.1" viewBox="0 0 700 700" xmlns="http://www.w3.org/2000/svg">
 <g fill-rule="evenodd">
  <path d="m356.47 65.004c-3.918-2.6133-9.0195-2.6133-12.938 0l-45.793 30.527c-10.449 6.9648-23.832 7.7969-35.066 2.1797l-47.453-23.727c-7.7578-3.8789-16.887 1.7617-16.887 10.438v391.16c0 8.6758 9.1289 14.316 16.887 10.438l47.453-23.73c11.234-5.6133 24.617-4.7812 35.066 2.1875l45.793 30.523c3.918 2.6133 9.0195 2.6133 12.938 0l45.793-30.523c10.453-6.9688 23.832-7.8008 35.066-2.1875l47.453 23.73c7.7578 3.8789 16.887-1.7617 16.887-10.438v-391.16c0-8.6758-9.1289-14.316-16.887-10.438l-47.453 23.727c-11.234 5.6172-24.613 4.7852-35.066-2.1797zm-25.883-19.414c11.758-7.8398 27.07-7.8398 38.828 0l45.789 30.523c3.4844 2.3242 7.9453 2.6016 11.691 0.73047l47.453-23.727c23.27-11.637 50.652 5.2852 50.652 31.305v391.16c0 26.02-27.383 42.941-50.652 31.305l-47.453-23.727c-3.7461-1.8711-8.207-1.5938-11.691 0.72656l-45.789 30.527c-11.758 7.8398-27.07 7.8398-38.828 0l-45.789-30.527c-3.4844-2.3203-7.9453-2.5977-11.691-0.72656l-47.453 23.727c-23.27 11.637-50.652-5.2852-50.652-31.305v-391.16c0-26.02 27.383-42.941 50.652-31.305l47.453 23.727c3.7461 1.8711 8.207 1.5938 11.691-0.73047z"/>
  <path d="m271.75 341.75 140-140 16.5 16.5-140 140z"/>
  <path d="m303.33 198.33c-6.4414 0-11.664 5.2266-11.664 11.668s5.2227 11.668 11.664 11.668c6.4453 0 11.668-5.2266 11.668-11.668s-5.2227-11.668-11.668-11.668zm-35 11.668c0-19.328 15.672-35 35-35 19.332 0 35 15.672 35 35s-15.668 35-35 35c-19.328 0-35-15.672-35-35z"/>
  <path d="m396.67 338.33c-6.4453 0-11.668 5.2266-11.668 11.668s5.2227 11.668 11.668 11.668c6.4414 0 11.664-5.2266 11.664-11.668s-5.2227-11.668-11.664-11.668zm-35 11.668c0-19.328 15.668-35 35-35 19.328 0 35 15.672 35 35s-15.672 35-35 35c-19.332 0-35-15.672-35-35z"/>
 </g>
</svg>
