<svg xmlns="http://www.w3.org/2000/svg" width="419.998" height="420.001" viewBox="0 0 419.998 420.001">
  <path id="noun-pet-1307711" d="M405.15,267.3l84.781,111.44A69.3,69.3,0,0,1,434.779,490H265.209a69.3,69.3,0,0,1-55.153-111.262L294.841,267.3a69.29,69.29,0,0,1,110.3,0ZM280,70a46.669,46.669,0,0,1,46.668,46.668V140a46.668,46.668,0,0,1-93.336,0V116.668A46.669,46.669,0,0,1,280,70ZM186.668,186.67a46.662,46.662,0,0,1,46.664,46.664V256.67a46.666,46.666,0,0,1-93.332,0V233.334A46.666,46.666,0,0,1,186.668,186.67ZM420,70a46.669,46.669,0,0,1,46.668,46.668V140a46.668,46.668,0,1,1-93.336,0V116.668A46.669,46.669,0,0,1,420,70ZM513.33,186.67A46.666,46.666,0,0,1,560,233.334V256.67a46.666,46.666,0,0,1-93.332,0V233.334A46.662,46.662,0,0,1,513.33,186.67Z" transform="translate(-140 -70)" fill-rule="evenodd"/>
</svg>
