<svg xmlns="http://www.w3.org/2000/svg" width="268.804" height="459.195" viewBox="0 0 268.804 459.195">
  <g id="noun-smartphone-1180913" transform="translate(-215.598 -50.402)">
    <path id="Path_628" data-name="Path 628" d="M249.2,50.4c-18.613,0-33.6,14.555-33.6,32.727V476.7c0,18.172,14.984,32.9,33.6,32.9H450.8c18.613,0,33.6-14.73,33.6-32.9V83.129c0-18.172-14.984-32.727-33.6-32.727Zm22.4,28A5.6,5.6,0,1,1,266,84,5.6,5.6,0,0,1,271.6,78.4Zm50.4,0h56a5.6,5.6,0,1,1,0,11.2H322a5.871,5.871,0,0,1-6.387-4.812c-.012-4.055,2.242-6.531,6.387-6.387Zm-68.25,28H445.2a11.638,11.638,0,0,1,11.2,11.2V442.4a11.638,11.638,0,0,1-11.2,11.2H254.8a11.638,11.638,0,0,1-11.2-11.2V117.6a11.6,11.6,0,0,1,10.148-11.2Z"/>
  </g>
</svg>
