<svg xmlns="http://www.w3.org/2000/svg" width="216.86" height="248.545" viewBox="0 0 216.86 248.545">
  <g id="noun-power-1953785" transform="translate(-85.802 0)">
    <path id="Path_4" data-name="Path 4" d="M330.49,92.938a15.482,15.482,0,0,0,15.49-15.49V15.49a15.49,15.49,0,1,0-30.979,0V77.449a15.482,15.482,0,0,0,15.49,15.49Z" transform="translate(-136.259)"/>
    <path id="Path_5" data-name="Path 5" d="M285.733,129.106a15.489,15.489,0,0,0-20.693,23.053A75.877,75.877,0,0,1,290.875,209.2a77.448,77.448,0,0,1-154.9,0,75.877,75.877,0,0,1,25.836-57.042A15.49,15.49,0,0,0,141.123,129.1a108.429,108.429,0,1,0,144.611,0Z" transform="translate(-19.196 -69.794)"/>
  </g>
</svg>
