<svg xmlns="http://www.w3.org/2000/svg" width="33.805" height="25.186" viewBox="0 0 33.805 25.186"><g transform="translate(-71.757 -90.802)"><path d="M118.629,111.022q.42,1.824.841,3.651c.04.171.08.346.12.517.349-.462.7-.921,1.052-1.383h-3.975l1.052.8c-.357-.925-.71-1.849-1.067-2.77a1.156,1.156,0,0,0-.5-.652,1.22,1.22,0,0,0-.841-.109c-.328.066-.659.116-.994.164.1-.015.193-.025.291-.04a17.422,17.422,0,0,1-4.565,0c.1.015.193.025.291.04-.331-.044-.663-.1-.99-.164a1.127,1.127,0,0,0-1.343.764c-.342.928-.71,1.849-1.067,2.77l1.052-.8h-3.975c.349.462.7.921,1.052,1.383q.42-1.813.837-3.629c.04-.175.08-.346.12-.521a1.112,1.112,0,0,0-.5-1.234,14.006,14.006,0,0,1-1.354-.794c-.218-.146-.43-.295-.637-.451-.149-.113.186.149.04.029l-.157-.124c-.1-.084-.2-.167-.3-.255a10.775,10.775,0,0,1-1.045-1.034c-.076-.087-.153-.178-.229-.269-.033-.044-.069-.084-.1-.127-.146-.182.149.2,0,.007s-.273-.375-.4-.572a9.6,9.6,0,0,1-.754-1.416l.109.262c-.025-.066-.055-.127-.08-.193a1.236,1.236,0,0,0-.393-.568,1.079,1.079,0,0,0-.663-.233h-.936a7.931,7.931,0,0,1-.976-.011c.1.015.193.025.291.04a1.069,1.069,0,0,1-.233-.069l.262.109-.127-.066c-.16-.084.215.2.055.04s.095.171.051.076c-.022-.051-.058-.095-.08-.146l.109.262a1.012,1.012,0,0,1-.069-.233c.015.1.025.193.04.291a3.914,3.914,0,0,1-.011-.506v-3.207a4.9,4.9,0,0,1,.011-.612c-.015.1-.025.193-.04.291a1.068,1.068,0,0,1,.069-.233l-.109.262c.022-.044.044-.084.066-.127.084-.16-.2.215-.04.055s-.171.095-.076.051c.051-.022.095-.058.146-.08l-.262.109a1.012,1.012,0,0,1,.233-.069c-.1.015-.193.025-.291.04a7.747,7.747,0,0,1,.965-.011h.925a1.127,1.127,0,0,0,1.052-.8c.029-.076.062-.157.095-.233l-.109.262a10.025,10.025,0,0,1,1.136-1.973c.131-.182-.127.16-.033.04l.08-.1a2.91,2.91,0,0,0,.317-.4,1.146,1.146,0,0,0,.146-.575c0-.087-.011-.178-.018-.266-.055-.779-.109-1.562-.164-2.341a5.757,5.757,0,0,1-.044-.75c-.015.1-.025.193-.04.291a.668.668,0,0,1,.044-.167l-.109.262c.109-.218-.167.164-.047.051-.237.222-.16.109-.047.062l-.262.109a.736.736,0,0,1,.12-.033c-.1.015-.193.025-.291.04.044,0,.084,0,.127,0-.1-.015-.193-.025-.291-.04a.549.549,0,0,1,.167.047l-.262-.109a3.843,3.843,0,0,1,.382.251l.717.488c.36.244.717.488,1.078.735a1.071,1.071,0,0,0,1.1,0,14.452,14.452,0,0,1,2.079-1.085l-.262.109a16.192,16.192,0,0,1,4.044-1.1c-.1.015-.193.025-.291.04a17.37,17.37,0,0,1,4.62,0c-.1-.015-.193-.025-.291-.04A16.094,16.094,0,0,1,118.3,94.2l-.262-.109a13.832,13.832,0,0,1,2.916,1.66c.022.015.04.033.062.047.1.076-.2-.157-.1-.076.047.036.095.073.142.113.113.091.222.182.331.277.2.171.386.346.572.528s.368.379.542.575c.069.08.138.16.2.244.051.066.106.127.157.193s.091.157-.058-.076c.029.044.062.084.091.124a9.129,9.129,0,0,1,1.067,1.857l-.109-.262a8.565,8.565,0,0,1,.59,2.119c-.015-.1-.025-.193-.04-.291a8.317,8.317,0,0,1,0,2.148c.015-.1.025-.193.04-.291a8.429,8.429,0,0,1-.586,2.122l.109-.262a9.215,9.215,0,0,1-.641,1.234c-.124.2-.251.39-.386.575-.036.047-.073.1-.109.146-.135.182.135-.171.029-.036-.076.095-.153.189-.233.284a11.554,11.554,0,0,1-1.019,1.048c-.182.164-.368.324-.561.473-.022.018-.044.033-.066.051-.1.084.2-.149.091-.069l-.131.1c-.113.084-.226.164-.339.244a14.107,14.107,0,0,1-1.514.906,1.1,1.1,0,0,0-.393,1.493,1.118,1.118,0,0,0,1.493.393,12.3,12.3,0,0,0,5.479-5.326,9.582,9.582,0,0,0,.979-3.717,9.366,9.366,0,0,0-.859-4.325,12.136,12.136,0,0,0-5.329-5.475,17.638,17.638,0,0,0-16.374-.029c-.28.153-.557.313-.826.484h1.1c-.364-.248-.728-.5-1.092-.746a7.073,7.073,0,0,0-1.347-.841,1.645,1.645,0,0,0-2.075,1.07,1.808,1.808,0,0,0-.055.724c.04.561.076,1.125.116,1.685.033.462.066.928.1,1.391.106-.258.215-.513.32-.772a11.126,11.126,0,0,0-1.871,3.142l1.052-.8h-.943a9.123,9.123,0,0,0-.946.011,2.1,2.1,0,0,0-1.544.9,2.024,2.024,0,0,0-.349,1.143c0,.2,0,.4,0,.608v3.349a2.09,2.09,0,0,0,1.045,1.842,3.244,3.244,0,0,0,1.66.258h1.1l-1.052-.8a11.051,11.051,0,0,0,1.762,2.981,12.577,12.577,0,0,0,2.5,2.272,14.452,14.452,0,0,0,1.642.99l-.5-1.234q-.42,1.813-.837,3.629c-.04.175-.08.346-.12.521a1.105,1.105,0,0,0,1.052,1.383h3.975a1.127,1.127,0,0,0,1.052-.8c.357-.925.724-1.842,1.067-2.77l-1.343.764a18.633,18.633,0,0,0,7.128,0l-1.343-.764c.357.925.71,1.849,1.067,2.77a1.134,1.134,0,0,0,1.052.8h3.975a1.105,1.105,0,0,0,1.052-1.383q-.42-1.824-.841-3.651c-.04-.171-.08-.346-.12-.517a1.1,1.1,0,0,0-1.343-.764,1.141,1.141,0,0,0-.724,1.351Z" transform="translate(-23.973 0)" fill="#89e798"/><path d="M529.406,210.813a4.4,4.4,0,0,0,1.23-.146,3.9,3.9,0,0,0,1.463-.815,3.712,3.712,0,0,0,1.23-2.763,1.092,1.092,0,1,0-2.184,0,2.881,2.881,0,0,1-.022.353c.015-.1.025-.193.04-.291a2.713,2.713,0,0,1-.178.659l.109-.262a2.774,2.774,0,0,1-.226.422.728.728,0,0,1-.08.117s.182-.222.084-.109c-.058.066-.113.131-.175.193s-.117.109-.175.16-.175.091.091-.069c-.033.022-.066.047-.1.069a2.468,2.468,0,0,1-.444.237l.262-.109a2.805,2.805,0,0,1-.659.178c.1-.015.193-.025.291-.04a4.688,4.688,0,0,1-.553.022,1.1,1.1,0,0,0-.007,2.2Z" transform="translate(-427.768 -107.526)" fill="#89e798"/><path d="M279.225,150.708c.018-.007.036-.015.058-.025l-.262.109a8.742,8.742,0,0,1,2.144-.582c-.1.015-.193.025-.291.04a9.1,9.1,0,0,1,2.4,0c-.1-.015-.193-.025-.291-.04a8.626,8.626,0,0,1,2.144.582l-.262-.109c.018.007.036.015.058.025a1.183,1.183,0,0,0,.841.109,1.092,1.092,0,0,0,.761-1.343,1.035,1.035,0,0,0-.5-.652,9.774,9.774,0,0,0-7.9,0,1.1,1.1,0,0,0-.5.652,1.092,1.092,0,0,0,.761,1.343,1.264,1.264,0,0,0,.848-.109Z" transform="translate(-193.717 -53.38)" fill="#89e798"/></g></svg>