<svg xmlns="http://www.w3.org/2000/svg" width="30.16" height="29.129" viewBox="0 0 30.16 29.129"><g transform="translate(-71.734 -36.856)"><path d="M124.987,50.21q-.216-1.213-.432-2.422l-.1.756q1.006-1.326,2.01-2.654c.095-.124.19-.249.285-.376a.891.891,0,0,0,.118-.625,1.046,1.046,0,0,0-.272-.563q-1.483-1.841-2.962-3.682c-.137-.17-.275-.344-.412-.514a.944.944,0,0,0-.956-.252l-3.224,1.29c-.151.062-.3.121-.455.183l.756.1-1.817-.952c.151.2.3.393.452.586q-.457-1.537-.91-3.07c-.043-.144-.085-.291-.128-.435a1,1,0,0,0-.946-.72h-5.364a1,1,0,0,0-.946.72q-.457,1.537-.91,3.07c-.043.144-.085.291-.128.435.151-.2.3-.393.452-.586l-1.817.952.756-.1-3.224-1.29c-.151-.062-.3-.121-.455-.183a.951.951,0,0,0-.956.252q-1.483,1.841-2.962,3.682c-.137.17-.275.344-.412.514a1.108,1.108,0,0,0-.272.563.887.887,0,0,0,.118.625q1.006,1.326,2.01,2.654c.095.124.19.249.285.376l-.1-.756q-.216,1.213-.432,2.422c.151-.2.3-.393.452-.586q-1.478.741-2.959,1.479c-.137.069-.278.137-.416.209a1,1,0,0,0-.452,1.11q.457,2.185.91,4.366c.043.2.085.406.128.612a1,1,0,0,0,.946.72c1.136.1,2.268.2,3.4.3.164.013.327.029.491.043-.281-.164-.566-.324-.848-.488.419.576.838,1.155,1.254,1.731-.046-.164-.088-.331-.134-.494-.128,1.047-.252,2.1-.38,3.145-.016.147-.036.3-.052.445a.948.948,0,0,0,.488.848l4.055,1.934.576.275a1.014,1.014,0,0,0,1.191-.154q1.08-1.134,2.157-2.271c.1-.108.206-.216.308-.324-.232.095-.461.193-.694.288h2.51c-.232-.095-.461-.193-.694-.288q1.08,1.134,2.157,2.271c.1.108.206.216.308.324a1.009,1.009,0,0,0,1.191.154l4.055-1.934.576-.275a.948.948,0,0,0,.488-.848c-.128-1.047-.252-2.1-.38-3.145-.016-.147-.036-.3-.052-.445-.046.164-.088.331-.134.494.419-.576.838-1.155,1.257-1.731-.281.164-.566.324-.848.488,1.136-.1,2.268-.2,3.4-.3.164-.013.327-.029.491-.043a1.008,1.008,0,0,0,.946-.72q.457-2.185.91-4.366c.043-.2.085-.406.128-.612a1,1,0,0,0-.452-1.11q-1.478-.741-2.959-1.479c-.137-.069-.278-.137-.416-.209a.981.981,0,1,0-.988,1.7q1.478.741,2.959,1.479c.137.069.278.137.416.209l-.452-1.11q-.457,2.185-.91,4.366c-.043.2-.085.406-.128.612l.946-.72c-1.3.115-2.6.219-3.888.347a1.082,1.082,0,0,0-.854.488c-.023.029-.046.062-.069.095l-.314.432c-.252.347-.5.694-.753,1.041a.969.969,0,0,0-.252.658c0,.062.016.124.023.187.043.367.088.73.131,1.1.092.769.187,1.538.278,2.307.164-.281.324-.566.488-.848l-4.055,1.934-.576.275c.4.052.792.1,1.191.154-.455-.481-.913-.959-1.368-1.44-.285-.3-.566-.6-.851-.894a1.283,1.283,0,0,0-.985-.55c-.763-.013-1.525,0-2.288,0a1.156,1.156,0,0,0-.874.288c-.043.039-.079.085-.121.128l-.749.789c-.534.56-1.067,1.123-1.6,1.682.4-.052.792-.1,1.191-.154l-4.055-1.934-.576-.275c.164.281.324.566.488.848.079-.651.157-1.306.236-1.957.049-.416.1-.828.151-1.244a1.182,1.182,0,0,0-.111-.92c-.389-.576-.815-1.132-1.227-1.7a1.087,1.087,0,0,0-.858-.491l-.075-.007-.344-.029L102.5,56.36c-.746-.065-1.493-.134-2.239-.2l.946.72q-.457-2.185-.91-4.366c-.043-.2-.085-.406-.128-.612l-.452,1.11c.605-.3,1.214-.605,1.82-.91l1.178-.589c.367-.183.733-.327.835-.8.16-.753.272-1.519.406-2.275a1.147,1.147,0,0,0-.082-.887c-.043-.065-.095-.128-.144-.19-.236-.311-.471-.622-.707-.936l-1.44-1.9c-.052.4-.1.792-.154,1.191q1.483-1.841,2.962-3.682c.137-.17.275-.344.412-.514-.317.085-.638.167-.956.252q.874.349,1.748.7c.638.255,1.27.543,1.918.766.448.157.936-.183,1.326-.386l1.123-.589a1.1,1.1,0,0,0,.589-.661c.023-.069.039-.137.062-.206.108-.36.213-.72.321-1.077q.329-1.11.658-2.216l-.946.72h5.364l-.946-.72c.187.625.37,1.25.556,1.879.121.406.239.808.36,1.214a1.457,1.457,0,0,0,.589,1.008c.586.334,1.2.642,1.8.943a1.235,1.235,0,0,0,1.195-.072l1.162-.465q1.041-.417,2.082-.831c-.317-.085-.638-.167-.956-.252q1.483,1.841,2.962,3.682c.137.17.275.344.412.514-.052-.4-.1-.792-.154-1.191-.547.723-1.1,1.447-1.643,2.17-.213.281-.455.556-.645.851a1.305,1.305,0,0,0-.065.975c.046.255.092.507.137.763.085.484.173.969.259,1.45a.982.982,0,0,0,1.208.684.969.969,0,0,0,.586-.452,1.243,1.243,0,0,0,.079-.763Z" transform="translate(-26.507)" fill="#89e798"/><path d="M258.267,192.287a4.6,4.6,0,0,1-.635-.043l.262.036a4.872,4.872,0,0,1-1.27-.347l.236.1a4.9,4.9,0,0,1-.8-.429c-.065-.043-.128-.088-.193-.134-.141-.1.062.062.079.062a.567.567,0,0,1-.1-.082c-.115-.095-.226-.2-.331-.3s-.206-.216-.3-.331c-.023-.026-.046-.056-.069-.082-.072-.088.151.2.062.079-.046-.062-.092-.128-.137-.193a4.877,4.877,0,0,1-.442-.812l.1.236a5,5,0,0,1-.347-1.27c.013.088.023.173.036.262a5.152,5.152,0,0,1,0-1.27c-.013.088-.023.173-.036.262a4.871,4.871,0,0,1,.347-1.27l-.1.236a4.9,4.9,0,0,1,.429-.8c.043-.065.088-.128.134-.193.1-.141-.062.062-.062.079a.566.566,0,0,1,.082-.1c.095-.115.2-.226.3-.331s.216-.206.331-.3l.082-.069c.088-.072-.2.151-.079.062.062-.046.128-.092.193-.137a4.879,4.879,0,0,1,.812-.442l-.236.1a5,5,0,0,1,1.27-.347l-.262.036a5.152,5.152,0,0,1,1.27,0l-.262-.036a4.871,4.871,0,0,1,1.27.347l-.236-.1a4.9,4.9,0,0,1,.8.429c.065.043.128.088.193.134.141.1-.062-.062-.079-.062a.567.567,0,0,1,.1.082c.115.095.226.2.331.3s.206.216.3.331c.023.026.046.056.069.082.072.088-.151-.2-.062-.079.046.062.092.128.137.193a4.877,4.877,0,0,1,.442.812l-.1-.236a5,5,0,0,1,.347,1.27c-.013-.088-.023-.173-.036-.262a5.152,5.152,0,0,1,0,1.27c.013-.088.023-.173.036-.262a4.872,4.872,0,0,1-.347,1.27l.1-.236a4.9,4.9,0,0,1-.429.8c-.043.065-.088.128-.134.193-.1.141.062-.065.062-.079a.566.566,0,0,1-.082.1c-.095.115-.2.226-.3.331s-.216.206-.331.3l-.082.069c-.088.072.2-.151.079-.062-.062.046-.128.092-.193.137a4.879,4.879,0,0,1-.812.442l.236-.1a5,5,0,0,1-1.27.347l.262-.036a5.907,5.907,0,0,1-.635.043.982.982,0,0,0,0,1.964A5.813,5.813,0,0,0,261.6,193.2a6.061,6.061,0,0,0,2.18-2.857,5.861,5.861,0,0,0-1.745-6.409,6.016,6.016,0,0,0-3.384-1.368,5.836,5.836,0,0,0-5.672,3.335,6.06,6.06,0,0,0-.439,3.705,5.855,5.855,0,0,0,4.716,4.553,6.485,6.485,0,0,0,1.008.092.984.984,0,0,0,0-1.967Z" transform="translate(-171.465 -136.977)" fill="#89e798"/></g></svg>