<svg xmlns="http://www.w3.org/2000/svg" width="34.867" height="23.279" viewBox="0 0 34.867 23.279"><g transform="translate(-72.162 -113.312)"><path d="M132.905,115.275V132.3c0,.771.008,1.539,0,2.311,0,.042,0,.084-.008.126.015-.1.027-.2.042-.306a1.079,1.079,0,0,1-.05.191l.115-.275a1.379,1.379,0,0,1-.065.13c-.076.164.183-.214.061-.08s.252-.141.08-.061c-.046.023-.084.046-.13.065l.275-.115a1.172,1.172,0,0,1-.191.05c.1-.015.2-.027.306-.042-.3.027-.607.008-.905.008h-28.9c-.393,0-.791,0-1.188,0a1,1,0,0,1-.149-.008c.1.015.2.027.306.042a1.079,1.079,0,0,1-.191-.05l.275.115a1.374,1.374,0,0,1-.13-.065c-.164-.076.214.183.08.061s.141.252.061.08c-.023-.046-.046-.084-.065-.13l.115.275a1.172,1.172,0,0,1-.05-.191c.015.1.027.2.042.306-.019-.2-.008-.4-.008-.6V117.639c0-.779-.008-1.554,0-2.333,0-.042,0-.084.008-.13-.015.1-.027.2-.042.306a1.079,1.079,0,0,1,.05-.191l-.115.275a1.372,1.372,0,0,1,.065-.13c.076-.164-.183.214-.061.08s-.252.141-.08.061c.046-.023.084-.046.13-.065l-.275.115a1.172,1.172,0,0,1,.191-.05c-.1.015-.2.027-.306.042.3-.027.607-.008.905-.008H132c.393,0,.791,0,1.188,0a1,1,0,0,1,.149.008c-.1-.015-.2-.027-.306-.042a1.079,1.079,0,0,1,.191.05l-.275-.115a1.372,1.372,0,0,1,.13.065c.164.076-.214-.183-.08-.061s-.141-.252-.061-.08c.023.046.046.084.065.13l-.115-.275a1.172,1.172,0,0,1,.05.191c-.015-.1-.027-.2-.042-.306a.42.42,0,0,1,.008.1,1.146,1.146,0,1,0,2.291,0,2,2,0,0,0-1.982-1.963H102.3a2,2,0,0,0-1.963,1.986c0,.39,0,.779,0,1.169V134.4a3.094,3.094,0,0,0,.008.325,1.99,1.99,0,0,0,1.978,1.86c.267,0,.538,0,.806,0h29.518c.2,0,.4,0,.592,0a2,2,0,0,0,1.963-1.99V115.274a1.146,1.146,0,0,0-2.291,0Z" transform="translate(-28.169)" fill="#89e798"/><path d="M132.974,176.127v3.6l1.146-1.146H102.875c-.424,0-.848-.008-1.272,0h-.053l1.146,1.146v-3.6l-1.146,1.146h31.244c.424,0,.848,0,1.272,0h.053a1.146,1.146,0,0,0,0-2.291H102.875c-.424,0-.848,0-1.272,0h-.053a1.162,1.162,0,0,0-1.146,1.146v3.6a1.162,1.162,0,0,0,1.146,1.146h31.244c.424,0,.848,0,1.272,0h.053a1.162,1.162,0,0,0,1.146-1.146v-3.6a1.146,1.146,0,1,0-2.291,0Z" transform="translate(-28.237 -57.361)" fill="#89e798"/><path d="M157.208,324.839h8.719a1.146,1.146,0,1,0,0-2.291h-8.719a1.146,1.146,0,1,0,0,2.291Z" transform="translate(-80.007 -194.624)" fill="#89e798"/><path d="M397.618,290.735a2.887,2.887,0,0,1-.019.317c.015-.1.027-.2.042-.306a2.735,2.735,0,0,1-.172.645l.115-.275a3.077,3.077,0,0,1-.21.4c-.023.034-.05.069-.073.1-.053.1.2-.233.073-.1-.05.057-.1.111-.153.164s-.111.1-.164.153c-.118.107.115-.092.115-.088s-.092.065-.1.073a2.624,2.624,0,0,1-.42.225l.275-.115a2.732,2.732,0,0,1-.645.172c.1-.015.2-.027.306-.042a2.9,2.9,0,0,1-.63,0c.1.015.2.027.306.042a2.835,2.835,0,0,1-.642-.168l.275.115a2.427,2.427,0,0,1-.344-.176c-.05-.031-.1-.065-.149-.1q-.109-.074.115.092c-.031-.023-.061-.05-.092-.076a1.178,1.178,0,0,0-1.619,0c-.031.027-.061.05-.092.076.046-.034.092-.073.137-.107a.75.75,0,0,1-.172.115,2.915,2.915,0,0,1-.344.176l.275-.115a2.7,2.7,0,0,1-.642.168c.1-.015.2-.027.306-.042a2.9,2.9,0,0,1-.63,0c.1.015.2.027.306.042a2.733,2.733,0,0,1-.645-.172l.275.115a3.073,3.073,0,0,1-.4-.21c-.034-.023-.069-.05-.1-.073-.1-.053.233.2.1.073-.057-.05-.111-.1-.164-.153s-.1-.111-.153-.164c-.107-.118.092.115.088.115s-.065-.092-.073-.1a2.617,2.617,0,0,1-.225-.42l.115.275a2.733,2.733,0,0,1-.172-.645c.015.1.027.2.042.306a2.971,2.971,0,0,1,0-.638c-.015.1-.027.2-.042.306a2.733,2.733,0,0,1,.172-.645l-.115.275a3.077,3.077,0,0,1,.21-.4c.023-.034.05-.069.073-.1.053-.1-.2.233-.073.1.05-.057.1-.111.153-.164s.111-.1.164-.153c.118-.107-.115.092-.115.088s.092-.065.1-.073a2.619,2.619,0,0,1,.42-.225l-.275.115a2.733,2.733,0,0,1,.645-.172c-.1.015-.2.027-.306.042a2.9,2.9,0,0,1,.63,0c-.1-.015-.2-.027-.306-.042a2.835,2.835,0,0,1,.642.168l-.275-.115a2.429,2.429,0,0,1,.344.176c.05.031.1.065.149.1q.109.074-.115-.092c.031.023.061.05.092.076a1.178,1.178,0,0,0,1.619,0c.031-.027.061-.05.092-.076-.046.034-.092.073-.138.107a.749.749,0,0,1,.172-.115,2.912,2.912,0,0,1,.344-.176l-.275.115a2.7,2.7,0,0,1,.642-.168c-.1.015-.2.027-.306.042a2.9,2.9,0,0,1,.63,0c-.1-.015-.2-.027-.306-.042a2.733,2.733,0,0,1,.645.172l-.275-.115a3.077,3.077,0,0,1,.4.21c.034.023.069.05.1.073.1.053-.233-.2-.1-.073.057.05.111.1.164.153s.1.111.153.164c.107.118-.092-.115-.088-.115s.065.092.073.1a2.619,2.619,0,0,1,.225.42l-.115-.275a2.734,2.734,0,0,1,.172.645c-.015-.1-.027-.2-.042-.306.011.107.015.214.019.321a1.146,1.146,0,1,0,2.291,0,3.685,3.685,0,0,0-1.925-3.216,3.628,3.628,0,0,0-1.974-.42,3.864,3.864,0,0,0-2.215.947h1.619a3.749,3.749,0,0,0-3.368-.848,3.649,3.649,0,0,0-2.517,4.808,3.761,3.761,0,0,0,2.246,2.188,3.69,3.69,0,0,0,3.64-.764h-1.619a3.853,3.853,0,0,0,2.215.947,3.64,3.64,0,0,0,3.9-3.636,1.146,1.146,0,0,0-2.291-.008Z" transform="translate(-296.956 -161.638)" fill="#89e798"/></g></svg>