<svg xmlns="http://www.w3.org/2000/svg" width="532.154" height="400.964" viewBox="0 0 532.154 400.964">
  <g id="noun-travel-3406357" transform="translate(-83.916 -79.518)">
    <path id="Path_673" data-name="Path 673" d="M609.28,239.12c-6.719-8.4-16.238-13.441-26.879-13.441A93.482,93.482,0,0,0,537.042,238l0-60.48a42.539,42.539,0,0,0-42.559-42.559H414.4V113.12a33.7,33.7,0,0,0-33.6-33.6H330.4a33.7,33.7,0,0,0-33.6,33.6v21.84H217.279a42.539,42.539,0,0,0-42.559,42.559v159.6a42.539,42.539,0,0,0,42.559,42.559h151.2l25.2,21.281a10.049,10.049,0,0,1,2.8,3.922l14,30.238a28.545,28.545,0,0,0,25.2,16.238c6.16,0,11.762-2.238,16.8-5.6l2.8-2.238a39.448,39.448,0,0,0,14-40.879l-1.68-5.6,18.48-12.879,21.281,36.4c5.039,8.4,14.559,14,24.078,14a29.79,29.79,0,0,0,21.84-10.078c9.519-12.32,13.441-27.441,10.078-43.121l-10.078-43.68,26.879-19.039a92.5,92.5,0,0,0,34.719-49.84,35.06,35.06,0,0,0-5.6-29.68Zm-114.8-80.641a19.479,19.479,0,0,1,19.6,19.6v78.4l-14,11.2-39.2-20.719,0-88.48ZM320.32,113.12a10.633,10.633,0,0,1,10.641-10.641h50.4A10.633,10.633,0,0,1,392,113.12v21.84H320.32Zm-69.441,243.6h-34.16a19.479,19.479,0,0,1-19.6-19.6l0-159.6a19.479,19.479,0,0,1,19.6-19.6h34.16ZM274.4,158.48h162.96V240.8H436.8a48.293,48.293,0,0,0-20.16,4.48c-8.4,3.922-14.559,11.2-16.238,20.16a29.654,29.654,0,0,0,7.281,25.2l29.121,29.68-17.359,14.559-5.039-2.8a40.866,40.866,0,0,0-19.6-5.039,39.57,39.57,0,0,0-23.52,7.84L369.038,336a28.855,28.855,0,0,0-10.641,20.16h-84Zm318.08,104.16A64.261,64.261,0,0,1,566.717,299.6l-39.762,27.441L540.4,386.4c1.68,8.4,0,16.8-5.6,22.961a4.834,4.834,0,0,1-3.359,1.68c-1.68,0-3.359-.559-3.922-2.238l-34.16-57.68L440.712,388.08l5.6,21.281a15.207,15.207,0,0,1-5.6,16.238l-2.8,2.238a4.282,4.282,0,0,1-2.8,1.121,4.218,4.218,0,0,1-3.922-2.8L417.2,394.8c-2.238-4.48-5.039-8.961-8.961-11.762l-25.762-21.281a4.2,4.2,0,0,1,0-6.719l2.8-2.238a14.907,14.907,0,0,1,8.961-3.359,14,14,0,0,1,7.84,2.238l19.039,11.2L470.4,322l-47.039-48.16a5.075,5.075,0,0,1,1.121-7.84,25.075,25.075,0,0,1,11.2-2.238,26.02,26.02,0,0,1,12.879,3.359l53.762,28.559,36.961-30.8a67.692,67.692,0,0,1,42-15.121c7.84-.559,12.879,6.164,11.2,12.883Z"/>
    <path id="Path_674" data-name="Path 674" d="M353.36,411.6c-120.4,70-198.8,48.16-229.6,8.4-27.438-35.281-20.156-86.8,17.922-124.88a11.482,11.482,0,1,0-16.238-16.238C78.4,324.8,70.561,389.2,105.842,434.56c21.281,28,56.559,44.238,98.559,45.922h6.719c45.922,0,98.559-16.8,154-48.719a11.825,11.825,0,0,0,4.48-15.68,12.507,12.507,0,0,0-16.238-4.48Z"/>
  </g>
</svg>
