<svg xmlns="http://www.w3.org/2000/svg" width="456.974" height="276.188" viewBox="0 0 456.974 276.188">
  <g id="noun-bike-1651177" transform="translate(-122.071 -142.14)">
    <path id="Path_128" data-name="Path 128" d="M491.12,242.48a75.217,75.217,0,0,0-19.6,2.238l-26.879-70h44.238a12.879,12.879,0,1,0,0-25.758H426.158a12.741,12.741,0,0,0-10.641,5.6,12.509,12.509,0,0,0-1.121,11.762l11.762,30.8-131.04,0-8.961-20.16,24.078-2.8c4.48-.559,7.84-3.922,7.84-8.4v-6.719c0-4.48-3.359-7.84-7.84-8.4l-76.16-8.4a7.9,7.9,0,0,0-8.4,4.48,8.481,8.481,0,0,0,.559,9.52l16.238,21.281a7.988,7.988,0,0,0,6.719,3.359h1.121l8.961-1.121,13.441,28.559-27.441,41.441c-10.641-5.039-22.961-7.281-35.281-7.281a87.922,87.922,0,1,0,87.359,96.883h15.68a32,32,0,0,0,22.4,19.039v10.078l-7.832,0a8.4,8.4,0,0,0,0,16.8h29.68a8.4,8.4,0,0,0,0-16.8h-6.16V358.4c14-3.922,24.641-16.8,24.641-31.922a30.592,30.592,0,0,0-4.48-16.238l67.762-78.4,8.4,22.4a87.732,87.732,0,1,0,43.68-11.758Zm-206.64-6.719,31.918,70c-1.68,2.238-3.359,5.039-5.039,7.84h-16.8a87.486,87.486,0,0,0-29.121-49.84Zm-33.039,49.277c7.84,7.84,14,17.359,16.8,28H232.4ZM208.879,392a62.16,62.16,0,0,1,0-124.32c7.281,0,14.559,1.121,20.719,3.922l-31.359,47.6c-2.8,3.922-2.8,8.961-.559,13.441a13.435,13.435,0,0,0,11.2,6.719h61.039A61.6,61.6,0,0,1,208.879,392Zm133.28-49.84A16.238,16.238,0,1,1,358.4,325.92,16.25,16.25,0,0,1,342.159,342.158ZM351.12,294a43.363,43.363,0,0,0-8.4-1.121,7.116,7.116,0,0,0-3.359.559l-32.48-70.559h106.4Zm140,98a62.379,62.379,0,0,1-62.16-62.16,60.737,60.737,0,0,1,28-51.52l21.84,56.559c2.238,5.039,6.719,8.4,11.762,8.4,1.68,0,3.359,0,4.48-1.121,6.719-2.8,10.078-10.078,7.281-16.8L481.039,268.8A62.023,62.023,0,1,1,491.121,392Z"/>
  </g>
</svg>
