<svg xmlns="http://www.w3.org/2000/svg" width="532.003" height="421.118" viewBox="0 0 532.003 421.118">
  <g id="noun-wifi-2146863" transform="translate(-84 -69.44)">
    <path id="Path_1313" data-name="Path 1313" d="M604.24,174.72a359.621,359.621,0,0,0-508.48,0,39.6,39.6,0,1,0,56,56C204.4,177.517,274.96,148.4,350,148.4s145.6,29.121,198.24,82.32a39.213,39.213,0,0,0,56,0c15.684-15.68,15.684-40.879,0-56Z" fill="#002600"/>
    <path id="Path_1314" data-name="Path 1314" d="M201.04,280.56a39.6,39.6,0,1,0,56,56C308.56,285.04,392,285.04,442.96,336c15.121,15.68,40.32,15.68,56,0a39.213,39.213,0,0,0,0-56c-82.32-81.762-215.6-81.762-297.92.559Z" fill="#002600"/>
    <path id="Path_1315" data-name="Path 1315" d="M412.16,428.96a61.6,61.6,0,1,1-61.6-61.6,61.6,61.6,0,0,1,61.6,61.6" fill="#002600"/>
  </g>
</svg>
