<svg xmlns="http://www.w3.org/2000/svg" width="416.668" height="360.835" viewBox="0 0 416.668 360.835">
  <g id="noun-video-196817" transform="translate(-133.333 -106.391)">
    <path id="Path_1318" data-name="Path 1318" d="M231.11,391.39H513.89a12.22,12.22,0,0,0,11.945-11.945l0-236.95a12.22,12.22,0,0,0-11.945-11.945H169.446A12.22,12.22,0,0,0,157.5,142.5v236.39a12.22,12.22,0,0,0,11.945,11.945h61.391l0,.555ZM169.446,415a36.394,36.394,0,0,1-36.109-36.109l0-236.39a36.036,36.036,0,0,1,36.109-36.109h344.45A36.036,36.036,0,0,1,550,142.5V378.89A36.394,36.394,0,0,1,513.892,415h-127.5l0,36.391h53.055a4.389,4.389,0,0,1,4.445,4.445v6.945a4.389,4.389,0,0,1-4.445,4.445l-195.55,0a4.389,4.389,0,0,1-4.445-4.445v-6.945a4.389,4.389,0,0,1,4.445-4.445h53.055V415l-48.336,0Z" fill="#002600"/>
    <path id="Path_1319" data-name="Path 1319" d="M304.17,186.95q6.668,3.75,13.332,7.5,48.334,27.913,96.668,55.832a12.489,12.489,0,0,1,0,21.391c-4.723,2.777-9.168,5.277-13.891,8.055q-48.334,27.914-96.668,55.832C295.556,340.282,285,334.169,285,325V197.5c.277-11.109,11.945-14.723,19.168-10.555Z" fill="#002600"/>
  </g>
</svg>
