<svg xmlns="http://www.w3.org/2000/svg" width="316.15" height="486.112" viewBox="0 0 316.15 486.112">
  <g id="bill-1" transform="translate(-191.865 -36.731)">
    <path id="Path_1313" data-name="Path 1313" d="M281.64,80.664H460.96c8.258,0,16.57.164,24.828,0h.328c-6.289-10.992-12.578-21.93-18.867-32.922-3.664,6.781-7.328,13.617-10.992,20.4l-26.414,49.055q-16.078,29.778-32.1,59.609-13.781,25.676-27.617,51.352c-4.484,8.313-9.078,16.57-13.453,24.992l-.164.328c-3.719,6.945-4.047,15.148,0,22.094A21.948,21.948,0,0,0,375.374,286.4H486.116c-5.141-12.469-10.336-24.883-15.477-37.352q-13.535,11.813-27.016,23.625-32.4,28.3-64.859,56.656-39.047,34.043-78.039,68.141L232.967,456.7c-10.938,9.516-21.984,18.922-32.758,28.656-.164.164-.328.273-.492.438,12.2,7.109,24.391,14.164,36.586,21.273,2.625-7.875,5.3-15.7,7.93-23.57q9.516-28.3,19.031-56.6,11.484-34.207,23.023-68.414,9.926-29.449,19.852-58.953c3.227-9.57,6.672-19.141,9.68-28.766a1.014,1.014,0,0,0,.109-.383c4.594-13.617-7.547-27.672-21.109-27.672H213.881c7.055,9.242,14.055,18.484,21.109,27.672,2.242-6.781,4.484-13.617,6.727-20.4q8.039-24.528,16.133-49.055,9.844-29.778,19.633-59.609,8.449-25.676,16.9-51.352c2.734-8.312,5.688-16.625,8.2-24.992a3.486,3.486,0,0,0,.109-.383c3.555-10.883-4.156-24.391-15.258-26.906-12.031-2.734-23.078,3.609-26.906,15.258-2.242,6.781-4.484,13.617-6.727,20.4q-8.039,24.528-16.133,49.055Q227.825,152.168,218.036,182q-8.449,25.676-16.9,51.352c-2.734,8.313-5.687,16.625-8.2,24.992a3.485,3.485,0,0,0-.109.383c-4.484,13.617,7.438,27.672,21.109,27.672h80.938c-7.055-9.242-14.055-18.484-21.109-27.672-2.625,7.875-5.3,15.7-7.93,23.57q-9.516,28.3-19.031,56.6-11.484,34.207-23.023,68.414-9.926,29.449-19.852,58.953c-3.227,9.57-6.836,19.086-9.68,28.766a1.014,1.014,0,0,0-.109.383c-.273,1.914-.547,3.883-.766,5.8a16.551,16.551,0,0,0,1.859,8.422,20.685,20.685,0,0,0,8.969,10.445c9.023,4.758,18.922,3.227,26.523-3.445q13.535-11.813,27.016-23.625,32.4-28.3,64.859-56.656,39.047-34.043,78.039-68.141L468.4,308.983c10.883-9.516,22.148-18.812,32.758-28.656.164-.164.328-.273.492-.437,2.625-2.3,4.7-6.344,5.633-9.68a21.543,21.543,0,0,0-1.094-14.219,21.934,21.934,0,0,0-20.016-13.453H375.428c6.289,10.992,12.578,21.93,18.867,32.922,3.664-6.781,7.328-13.617,10.992-20.4L431.7,206.007q16.078-29.778,32.1-59.609,13.781-25.676,27.617-51.352c4.484-8.312,9.078-16.57,13.453-24.992l.164-.328c3.719-6.945,4.047-15.148,0-22.094A21.948,21.948,0,0,0,486.17,36.8H306.85c-8.258,0-16.57-.164-24.828,0h-.328c-11.43,0-22.422,10.062-21.875,21.875.492,11.922,9.57,21.984,21.82,21.984Z" fill="#002600"/>
  </g>
</svg>
