<svg xmlns="http://www.w3.org/2000/svg" width="468" height="439.505" viewBox="0 0 468 439.505">
  <g id="noun-heating-3764459" transform="translate(-110.5 -60.24)">
    <path id="Path_1313" data-name="Path 1313" d="M227.5,205.47c23.012-38.219,62.465-104.93,62.465-104.93A8.751,8.751,0,0,1,306.25,105v84.3a97.173,97.173,0,0,0,26.758,66.988A121.272,121.272,0,0,1,367.5,341.243a122.5,122.5,0,0,1-245,0V323.989A96.284,96.284,0,0,1,138.66,270.6c24.93-37.379,72.809-109.21,72.809-109.21a8.75,8.75,0,0,1,16.027,4.859ZM245,294.658c-9.809,13.477-27.9,39.391-40.234,63.453-6.965,13.578-12.266,26.4-12.266,35.629a52.5,52.5,0,0,0,105,0c0-9.23-5.3-22.051-12.266-35.629C272.9,334.049,254.812,308.131,245,294.658ZM307.238,425.8a104.707,104.707,0,0,0,13.168-157.367,114.747,114.747,0,0,1-31.656-79.137V136.927c-19.582,33.023-50.984,85.793-60.078,100.23a45.626,45.626,0,0,1-3.578,5.137,8.393,8.393,0,0,1-4.332,2.469A8.752,8.752,0,0,1,210,236.251v-41.1l-56.77,85.156A78.725,78.725,0,0,0,140,323.993v17.254A104.9,104.9,0,0,0,182.762,425.8,69.647,69.647,0,0,1,175,393.747c0-11.242,5.723-27.09,14.191-43.609,18.332-35.754,48.867-75.477,48.867-75.477a8.756,8.756,0,0,1,13.875,0s30.539,39.727,48.867,75.477c8.469,16.52,14.191,32.367,14.191,43.609A69.637,69.637,0,0,1,307.23,425.8Z" transform="translate(-11)" fill="#002600" stroke="#002600" stroke-width="2" fill-rule="evenodd"/>
    <path id="Path_1314" data-name="Path 1314" d="M385,348.78V96.24a35,35,0,0,1,35-35h52.5a35,35,0,0,1,35,35V348.78a87.5,87.5,0,1,1-122.5,0Zm14.586,10.309a8.759,8.759,0,0,0,2.914-6.52V96.249a17.5,17.5,0,0,1,17.5-17.5h52.5a17.5,17.5,0,0,1,17.5,17.5v256.32a8.759,8.759,0,0,0,2.914,6.52,70,70,0,1,1-93.328,0Z" fill="#002600" stroke="#002600" stroke-width="2" fill-rule="evenodd"/>
    <path id="Path_1315" data-name="Path 1315" d="M420,388.11V192.5a26.25,26.25,0,0,1,52.5,0V388.11a35,35,0,1,1-52.5,0Zm14.586,10.1a8.759,8.759,0,0,0,2.914-6.52v-199.2a8.75,8.75,0,1,1,17.5,0v199.2a8.759,8.759,0,0,0,2.914,6.52,17.5,17.5,0,1,1-23.328,0Z" fill="#002600" stroke="#002600" stroke-width="2" fill-rule="evenodd"/>
    <path id="Path_1316" data-name="Path 1316" d="M533.75,148.75h35a8.75,8.75,0,0,0,0-17.5h-35a8.75,8.75,0,0,0,0,17.5Z" fill="#002600" stroke="#002600" stroke-width="2" fill-rule="evenodd"/>
    <path id="Path_1317" data-name="Path 1317" d="M533.75,218.75h35a8.75,8.75,0,0,0,0-17.5h-35a8.75,8.75,0,0,0,0,17.5Z" fill="#002600" stroke="#002600" stroke-width="2" fill-rule="evenodd"/>
    <path id="Path_1318" data-name="Path 1318" d="M533.75,288.75h35a8.75,8.75,0,0,0,0-17.5h-35a8.75,8.75,0,0,0,0,17.5Z" fill="#002600" stroke="#002600" stroke-width="2" fill-rule="evenodd"/>
  </g>
</svg>
