<svg xmlns="http://www.w3.org/2000/svg" width="560.006" height="560.007" viewBox="0 0 560.006 560.007">
  <g id="noun-campfire-4168279" transform="translate(-69.994 -0.001)">
    <path id="Path_191" data-name="Path 191" d="M325.93,362.14a19.569,19.569,0,0,1-3.656,5.074l-9.664,9.664a26.53,26.53,0,0,0,6.9,42.489l8.391,4.191,8.082-16.16-8.391-4.191a8.462,8.462,0,0,1-2.211-13.555l9.664-9.664a37.6,37.6,0,0,0,7.047-9.766l1.355-2.711,9.2,9.2,12.773-12.773L338.5,337.016Z"/>
    <path id="Path_192" data-name="Path 192" d="M630,162.58H510.11L470.317,18.31A25.019,25.019,0,0,0,446.27,0h-8.1a24.974,24.974,0,0,0-24.945,24.945,24.637,24.637,0,0,0,.9,6.629l36.137,131.01H426.544a81.156,81.156,0,0,0-153.094,0H249.739l36.137-131.01A24.949,24.949,0,0,0,261.825,0h-8.1a25,25,0,0,0-24.043,18.309l-39.8,144.27H69.994V180.65h114.9L88.953,528.44a24.958,24.958,0,0,0,24.054,31.566h8.1A25,25,0,0,0,145.152,541.7l99.6-361.05h24.488a80.315,80.315,0,0,0-.535,9.031v27.1H250.641a18.085,18.085,0,0,0-18.066,18.066v117.42a62.953,62.953,0,0,0,10.9,35.379c-.93.813-1.742,1.734-2.711,2.512l-1.7,1.355a65.32,65.32,0,0,0-6.391,96.238h-27.2a27.131,27.131,0,0,0-27.1,27.1V532.91a27.131,27.131,0,0,0,27.1,27.1h36.129a26.923,26.923,0,0,0,18.066-7.047,26.881,26.881,0,0,0,18.066,7.047h54.2A26.923,26.923,0,0,0,350,552.962a26.881,26.881,0,0,0,18.066,7.047h54.2a26.923,26.923,0,0,0,18.066-7.047,26.881,26.881,0,0,0,18.066,7.047h36.129a27.131,27.131,0,0,0,27.1-27.1V514.844a27.131,27.131,0,0,0-27.1-27.1H458.4a26.923,26.923,0,0,0-18.066,7.047c-.055-.055-.117-.09-.172-.145l1.555-1.164a64.627,64.627,0,0,0,25.7-51.434,63.923,63.923,0,0,0-18.57-45.2,63.162,63.162,0,0,0,18.57-44.59V252.907a36.164,36.164,0,0,0-36.129-36.129v-27.1a81.133,81.133,0,0,0-.531-9.031h24.488l99.6,361.05a25.018,25.018,0,0,0,24.043,18.309h8.1a24.972,24.972,0,0,0,24.945-24.945,24.637,24.637,0,0,0-.9-6.629l-95.93-347.78h114.9ZM127.74,536.88a6.9,6.9,0,0,1-6.629,5.047h-8.1a6.89,6.89,0,0,1-6.883-6.879,7.049,7.049,0,0,1,.242-1.824l140.72-510.11a6.9,6.9,0,0,1,6.633-5.051h8.1a6.89,6.89,0,0,1,6.883,6.879,7.049,7.049,0,0,1-.242,1.824ZM350,126.45a63.245,63.245,0,0,1,57.039,36.129H292.959A63.238,63.238,0,0,1,350,126.45Zm50.184,108.39a35.727,35.727,0,0,0-5.023,18.062H250.641V234.836ZM241.614,541.93H205.485a9.046,9.046,0,0,1-9.031-9.031V514.833a9.046,9.046,0,0,1,9.031-9.031h36.129a9.046,9.046,0,0,1,9.031,9.031V532.9A9.046,9.046,0,0,1,241.614,541.93Zm90.32,0h-54.2a9.046,9.046,0,0,1-9.031-9.031V514.833a9.046,9.046,0,0,1,9.031-9.031h54.2a9.046,9.046,0,0,1,9.031,9.031V532.9A9.041,9.041,0,0,1,331.934,541.93Zm90.324,0h-54.2a9.046,9.046,0,0,1-9.031-9.031V514.833a9.046,9.046,0,0,1,9.031-9.031h54.2a9.046,9.046,0,0,1,9.031,9.031V532.9A9.046,9.046,0,0,1,422.258,541.93ZM458.387,505.8h36.129a9.046,9.046,0,0,1,9.031,9.031V532.9a9.046,9.046,0,0,1-9.031,9.031H458.387a9.046,9.046,0,0,1-9.031-9.031V514.832a9.048,9.048,0,0,1,9.031-9.031ZM435.4,384.8a87.415,87.415,0,0,1-22.637-35.406l-4.625-13.863-37.43,37.43,12.773,12.773,17.5-17.5a105.556,105.556,0,0,0,28.895,36.02l2.113,1.7a45.928,45.928,0,0,1,17.363,36.09,46.459,46.459,0,0,1-18.488,36.988l-11.617,8.707H388.477a41.632,41.632,0,0,0-5.546-52.1L368.068,420.77l-24.449,24.449,12.773,12.773,11.676-11.68,2.094,2.094a23.68,23.68,0,0,1,0,33.492l-6.258,6.258a26.89,26.89,0,0,0-13.9,6.629,26.881,26.881,0,0,0-18.066-7.047h-5.293l-9.031-9.031a12.788,12.788,0,0,1,0-18.07l5.293-5.293,11.68,11.68,12.773-12.773L322.9,429.8l-18.066,18.066a30.64,30.64,0,0,0-3.078,39.871l-24.016,0a26.759,26.759,0,0,0-12.891,3.414l-14.5-11.6a47.355,47.355,0,0,1,0-73.946l1.7-1.355a105.494,105.494,0,0,0,28.9-36.02l17.5,17.5,12.773-12.773-37.43-37.43-4.625,13.863a87.4,87.4,0,0,1-12.871,24.434,45.046,45.046,0,0,1-5.648-21.578V270.96h149.54A35.548,35.548,0,0,0,449.357,284v68.246A45.161,45.161,0,0,1,435.4,384.8Zm13.957-131.91a18.066,18.066,0,1,1-18.066-18.066,18.085,18.085,0,0,1,18.066,18.066Zm-36.129-63.227v27.1H286.777v-27.1a63.248,63.248,0,0,1,.723-9.031H412.51a63.293,63.293,0,0,1,.723,9.031Zm180.64,345.38a6.89,6.89,0,0,1-6.883,6.879h-8.1a6.9,6.9,0,0,1-6.629-5.051l-140.71-510.1a6.7,6.7,0,0,1-.254-1.836,6.89,6.89,0,0,1,6.883-6.879h8.1a6.9,6.9,0,0,1,6.633,5.047l140.71,510.11a6.843,6.843,0,0,1,.25,1.836Z"/>
  </g>
</svg>
