<svg xmlns="http://www.w3.org/2000/svg" width="469.047" height="462.339" viewBox="0 0 469.047 462.339">
  <g id="noun-clothes-shop-1328958" transform="translate(-115.481 -53.811)">
    <path id="Path_292" data-name="Path 292" d="M123.87,516.15H576.13a8.4,8.4,0,0,0,8.4-8.4V262.862a8.4,8.4,0,0,0-5.992-8.062l-126.61-37.578A8.4,8.4,0,0,0,441.9,221.7a101.359,101.359,0,0,1-183.9,0,8.4,8.4,0,0,0-10.023-4.48l-126.5,37.633a8.4,8.4,0,0,0-5.992,8.066v244.83a8.4,8.4,0,0,0,8.4,8.4Zm8.4-246.96,113.85-33.6,0,0a118.1,118.1,0,0,0,207.758,0l113.85,33.6v230.16l-435.45,0Z"/>
    <path id="Path_293" data-name="Path 293" d="M350,134.9a8.4,8.4,0,0,0-8.4,8.4V190.79A99.985,99.985,0,0,0,278.938,219.8a8.4,8.4,0,0,0,11.871,11.871,84,84,0,0,1,118.382,0A8.4,8.4,0,1,0,421.062,219.8,99.985,99.985,0,0,0,358.4,190.79V151.2a49.057,49.057,0,1,0-57.453-48.328,8.4,8.4,0,1,0,16.8,0A32.26,32.26,0,1,1,350,134.9Z"/>
    <path id="Path_294" data-name="Path 294" d="M516.6,357H415.13a8.4,8.4,0,0,0-8.4,8.4v67.875a42.063,42.063,0,0,0,42,42H483a42.056,42.056,0,0,0,42-42V365.4a8.4,8.4,0,0,0-8.4-8.4Zm-8.4,37.8H444.526a5.6,5.6,0,0,0,0,11.2H508.2v27.273a25.2,25.2,0,0,1-25.2,25.2H448.726a25.207,25.207,0,0,1-25.2-25.2V373.8H508.2Z"/>
  </g>
</svg>
