<svg xmlns="http://www.w3.org/2000/svg" width="549.142" height="549.863" viewBox="0 0 549.142 549.863">
  <g id="noun-food-3160306" transform="translate(-78.745 -8.749)">
    <path id="Path_453" data-name="Path 453" d="M160.06,422.56l-11.312,11.316L137.436,422.56l-12.375,12.375,11.316,11.312-11.316,11.312,12.375,12.375,11.312-11.316,11.312,11.316,12.375-12.375-11.316-11.312,11.316-11.312Z"/>
    <path id="Path_454" data-name="Path 454" d="M248.89,437.5H222.656a52.492,52.492,0,0,0-3.91-7.027l-10.219-15.328-14.559,9.7,10.219,15.328a34.5,34.5,0,0,1,5.809,19.2,47.1,47.1,0,0,1-4.945,20.957L193.421,503.59l15.652,7.832,7.734-15.469A80.281,80.281,0,0,0,258.03,507.5a29.954,29.954,0,0,0,26.949-16.66,35.658,35.658,0,0,0-6.687-41.16,41.262,41.262,0,0,0-29.4-12.184Zm20.438,45.516A12.556,12.556,0,0,1,258.035,490a62.9,62.9,0,0,1-33.992-10.02,64.88,64.88,0,0,0,3.453-20.605c0-1.469-.2-2.914-.324-4.375h21.719a23.952,23.952,0,0,1,17.035,7.051,18.16,18.16,0,0,1,3.4,20.965Z"/>
    <path id="Path_455" data-name="Path 455" d="M595.59,472.5l32.3-86.117-35.559,15.242a122.088,122.088,0,0,0-24.7-138.242A155.386,155.386,0,0,0,595,175H577.5a138.2,138.2,0,0,1-17.875,68.109,61.032,61.032,0,0,0-41.512-53.383L490,180.363v32.191a61.925,61.925,0,0,0,2.055,15.531c-3.586-.316-7.191-.586-10.8-.586a121.956,121.956,0,0,0-83.379,33l3.77-26.406c41.25-6.922,70.859-30.371,70.859-59.1,0-15.777-9.258-30.7-25.691-41.859a87.486,87.486,0,0,0-150.411-87.9A60.622,60.622,0,0,0,262.5,35a61.242,61.242,0,0,0-55.23,87.719,70.264,70.264,0,0,0-19.59,29.348c-.832-.289-1.707-.43-2.547-.684l5.117-25.531a115.644,115.644,0,0,0,2.25-22.7,38.19,38.19,0,0,0-4.008-16.984A29.236,29.236,0,0,0,149.254,73.09l-1.18.586a25.782,25.782,0,0,0-46.516,5.215,45.637,45.637,0,0,0-.672,26.8,28.151,28.151,0,0,0-15.965,45.1l26.652,33.32a62.777,62.777,0,0,0-4.7,43.235l40.145,164.21A146.354,146.354,0,0,0,96.168,418.9a48.389,48.389,0,0,0-3.238,71.41A177.068,177.068,0,0,0,218.94,542.5a771.532,771.532,0,0,0,155.27-15.906l7.2,7.2A59.623,59.623,0,0,0,476.8,518.479L487.417,498.4l140.47,60.207Zm-18.688,0,20.2,53.883-87.352-37.441,49.465-15.051-45.551-19.52,83.441-35.762ZM507.5,204.64l5.082,1.7A43.7,43.7,0,0,1,542.5,247.847v9.25l-10.816-5.406A43.509,43.509,0,0,1,507.5,212.558ZM481.246,245a105.148,105.148,0,0,1,19.371,1.918,61.061,61.061,0,0,0,23.23,20.422l12.617,6.309-8.918,8.918,12.371,12.371,9.188-9.187c2.723-2.723,5.207-5.609,7.7-8.488A104.859,104.859,0,0,1,586.245,350a103.782,103.782,0,0,1-21.367,63.387l-73.641,31.562q-12.6-5.273-25.324-10.113a196.037,196.037,0,0,0-87.332-63.566A104.31,104.31,0,0,1,481.245,245Zm-212.76,143.69-31.211-145.66A70.92,70.92,0,0,0,253.744,245c.453,0,.9-.07,1.355-.078l22.777,144.8c-3.133-.344-6.258-.73-9.391-1.027Zm27.469,3.316-23.547-149.68a70.385,70.385,0,0,0,26.109-13.668l7.227,130.09h-8.25v33.461c-.516-.07-1.031-.133-1.539-.2ZM323.3,359.286l-7.578-136.4a116.642,116.642,0,0,0,25.227,9.188l-7.859,128.15q-4.881-.592-9.789-.937Zm-8.3,17.051c5.836.184,11.637.727,17.414,1.461l-.227,19.941c-5.723-1.051-11.438-2.16-17.184-3.07Zm34.879,4.57c5.949,1.363,11.84,2.977,17.621,4.926v19.242c-5.949-1.383-11.863-2.906-17.852-4.141Zm35.121,11.9c4.3,1.969,8.559,4.035,12.7,6.336a181.373,181.373,0,0,1,32.516,23.2c-14.973-4.84-30.02-9.309-45.211-13.211Zm-8.582-105.86A121.534,121.534,0,0,0,358.744,350a123.114,123.114,0,0,0,.953,15.242c-3.062-.8-6.16-1.461-9.25-2.109l7.848-127.94a154.551,154.551,0,0,0,17.949,1.059c2.52,0,4.98-.113,7.445-.227Zm-152.86-154.82,7.016-4.875-4.707-7.133a43.273,43.273,0,0,1-7.121-23.875,43.8,43.8,0,0,1,43.75-43.75,43,43,0,0,1,29.984,12l8.215,7.9,5.512-9.984a69.975,69.975,0,1,1,121.5,69.422l-4.664,7.813L431.021,144c15.234,8.293,23.969,19.59,23.969,30.992,0,23.711-36.066,43.75-78.75,43.75-25.516,0-49.641-7.133-64.523-19.074l-7.84-6.281L298.724,202a52.259,52.259,0,0,1-65.714,21.156l-5.723-26.715a60.193,60.193,0,0,0-23.949-36.137,52.418,52.418,0,0,1,20.215-28.184ZM172.829,93.985a20.522,20.522,0,0,1,2.16,9.16,98.427,98.427,0,0,1-1.906,19.266L167.8,148.766c-1.109.008-2.2.105-3.289.168l-11.473-58.18,4.035-2.02a11.994,11.994,0,0,1,15.758,5.25Zm-54.672-9.57a8.289,8.289,0,0,1,15.988.969l13.2,66.988c-1.277.445-2.562.883-3.8,1.41L119.7,106.093a28.149,28.149,0,0,1-1.543-21.68ZM98.583,139.852a10.683,10.683,0,0,1,8.34-17.36h1.41l20.188,40.363a63.482,63.482,0,0,0-6.563,6.2Zm25.27,83.273a45.793,45.793,0,0,1,44.426-56.883,43.072,43.072,0,0,1,41.9,33.871l40.109,187.2c-18.883-1.383-37.844-2.32-56.926-2.32h-3.6a145.589,145.589,0,0,0-25.77,2.32Zm-18.559,254.8a30.9,30.9,0,0,1,2.066-45.593,128.936,128.936,0,0,1,82.4-29.84h3.6a750.08,750.08,0,0,1,297.16,61l17.762,7.613-69.7,21.211a754.094,754.094,0,0,1-219.65,32.68,159.712,159.712,0,0,1-113.64-47.066Zm318.27,55.816a41.777,41.777,0,0,1-28.9-11.609c16.449-3.852,32.8-8.156,49.016-13.082l21.812-6.641-4.262,8.059a41.9,41.9,0,0,1-37.664,23.273Z"/>
    <path id="Path_456" data-name="Path 456" d="M411.25,350a70.079,70.079,0,0,1,70-70V262.5a87.6,87.6,0,0,0-87.5,87.5Z"/>
    <path id="Path_457" data-name="Path 457" d="M155.36,236.5l35-8.75,4.242,16.977-35,8.75Z"/>
    <path id="Path_458" data-name="Path 458" d="M164.11,271.5l35-8.75,4.242,16.977-35,8.75Z"/>
    <path id="Path_459" data-name="Path 459" d="M172.86,306.5l35-8.75,4.242,16.977-35,8.75Z"/>
  </g>
</svg>
