<svg xmlns="http://www.w3.org/2000/svg" width="472.5" height="525.008" viewBox="0 0 472.5 525.008">
  <g id="noun-makeup-3480915" transform="translate(-113.75 -17.495)">
    <path id="Path_513" data-name="Path 513" d="M577.5,367.5V323.75a8.749,8.749,0,0,0-8.75-8.75H560V236.25a8.749,8.749,0,0,0-8.75-8.75H542.5v-70a8.787,8.787,0,0,0-1.992-5.562L504.5,108.188h0a8.754,8.754,0,0,0-14.164.906l-16.492,26.25A8.76,8.76,0,0,0,472.5,140v87.5h-8.75a8.751,8.751,0,0,0-8.75,8.75v38.223a148.58,148.58,0,0,0-236.25-11.457V166.973l17.379-104.29a8.434,8.434,0,0,0,.121-1.437A43.8,43.8,0,0,0,192.5,17.5h-35a43.8,43.8,0,0,0-43.75,43.75,8.434,8.434,0,0,0,.121,1.438l17.379,104.29v349.28A26.287,26.287,0,0,0,157.5,542.5h35a26.393,26.393,0,0,0,15.1-4.8,43.514,43.514,0,0,0,19.9,4.8h350a8.749,8.749,0,0,0,8.75-8.75v-157.5a8.749,8.749,0,0,0-8.75-8.75Zm-96.516,0q.258-4.365.266-8.75a148.982,148.982,0,0,0-2.32-26.25H560v35ZM490,142.52l8.7-13.844L525,160.637V227.5H490ZM472.5,245h70v70H474.68q-1.014-3.293-2.18-6.52Zm-140-17.5A131.393,131.393,0,0,1,463.75,358.75a129.733,129.733,0,0,1-26.266,78.75H414.593a113.749,113.749,0,1,0-164.186,0H227.516a129.735,129.735,0,0,1-26.266-78.75A131.393,131.393,0,0,1,332.5,227.5ZM297.5,455h70v17.5h-70Zm-20.344-17.5a96.251,96.251,0,1,1,110.686,0ZM201.25,280h-52.5V175h52.5ZM157.5,35h35a26.284,26.284,0,0,1,26.242,25.578L202.585,157.5H147.413L131.257,60.578A26.284,26.284,0,0,1,157.5,35Zm0,490a8.756,8.756,0,0,1-8.75-8.75V297.5h48.2a148.643,148.643,0,0,0,4.3,131.22V437.5H192.5a8.751,8.751,0,0,0-8.75,8.75v52.5A43.505,43.505,0,0,0,192.523,525Zm70,0a26.287,26.287,0,0,1-26.25-26.25V455H280v26.25a8.749,8.749,0,0,0,8.75,8.75h87.5a8.749,8.749,0,0,0,8.75-8.75V455h78.75v43.75A26.287,26.287,0,0,1,437.5,525Zm341.25,0H472.477a43.505,43.505,0,0,0,8.773-26.25v-52.5a8.749,8.749,0,0,0-8.75-8.75H458.688A149.55,149.55,0,0,0,478.9,385H568.75Z"/>
  </g>
</svg>
