<svg xmlns="http://www.w3.org/2000/svg" width="447.887" height="242.237" viewBox="0 0 447.887 242.237">
  <g id="noun-graduation-cap-2786447" transform="translate(-125.989 -158.886)">
    <path id="Path_476" data-name="Path 476" d="M559.66,206.19,390.09,163.8a166.29,166.29,0,0,0-80.246,0L140.274,206.19a18.951,18.951,0,0,0,0,36.734l28.281,7.055v54.152a11.582,11.582,0,0,0-7.055,10.3,11.029,11.029,0,0,0,4.93,9.184l-11.2,55.887a18.051,18.051,0,1,0,35.39,0L179.3,323a11.077,11.077,0,0,0,4.258-8.625,10.828,10.828,0,0,0-6.16-9.91V252.108l38.809,9.742v65.969c0,13.383,14.617,24.586,42.281,32.48,24.527,7,56.953,10.863,91.391,10.863s66.863-3.863,91.391-10.863c27.664-7.895,42.281-19.152,42.281-32.48l-.008-65.91,75.992-18.984a18.952,18.952,0,0,0,.113-36.734ZM469.445,327.88c0,3.3-6.777,11.426-31.922,18.594-23.238,6.664-54.375,10.3-87.473,10.3s-64.344-3.641-87.586-10.3c-25.145-7.168-31.977-15.289-31.977-18.594l0-62.047,76.609,19.1a180.205,180.205,0,0,0,32.312,4.93c3.473.223,7,.336,10.527.336,3.473,0,7-.113,10.473-.336a176.647,176.647,0,0,0,32.426-4.93l76.609-19.1Zm86.742-99.008-169.57,42.391a150.088,150.088,0,0,1-31.977,4.426c-3.078.113-6.215.113-9.3,0a150.57,150.57,0,0,1-31.977-4.426L143.8,228.872a4.5,4.5,0,0,1,0-8.734l169.57-42.391a151.932,151.932,0,0,1,73.25,0l169.57,42.391a4.5,4.5,0,0,1,0,8.734Z"/>
  </g>
</svg>
